M48
; DRILL file {KiCad 7.0.8} date Wed Apr 10 09:11:24 2024
; FORMAT={3:3/ absolute / metric / suppress leading zeros}
; #@! TF.CreationDate,2024-04-10T09:11:24-04:00
; #@! TF.GenerationSoftware,Kicad,Pcbnew,7.0.8
; #@! TF.FileFunction,MixedPlating,1,2
FMAT,2
METRIC,TZ
; #@! TA.AperFunction,Plated,PTH,ComponentDrill
T1C1.016
; #@! TA.AperFunction,Plated,PTH,ComponentDrill
T2C2.330
%
G90
G05
T1
X2140Y19075
X2140Y16535
X4985Y19050
X4985Y16550
X5715Y6096
X5715Y3556
X6985Y19050
X6985Y16550
X8255Y6350
X8255Y3810
X10795Y6096
X10795Y3556
X13335Y6350
X13335Y3810
X15875Y6096
X15875Y3556
X18415Y6350
X18415Y3810
X20955Y6096
X20955Y3556
X22289Y18085
X22289Y15545
X22289Y13005
X23495Y6350
X23495Y3810
X26035Y6096
X26035Y3556
X28575Y19685
X28575Y17145
X28575Y14605
X28575Y12065
X28575Y6350
X28575Y3810
X32576Y19685
X32576Y17145
X32576Y14605
X32576Y12065
T2
X2275Y23820
X2275Y11780
T0
M30
