%TF.GenerationSoftware,KiCad,Pcbnew,7.0.8*%
%TF.CreationDate,2024-04-10T09:11:16-04:00*%
%TF.ProjectId,petit-swd,70657469-742d-4737-9764-2e6b69636164,0.1*%
%TF.SameCoordinates,PX77e7cd0PY6a95280*%
%TF.FileFunction,Legend,Top*%
%TF.FilePolarity,Positive*%
%FSLAX46Y46*%
G04 Gerber Fmt 4.6, Leading zero omitted, Abs format (unit mm)*
G04 Created by KiCad (PCBNEW 7.0.8) date 2024-04-10 09:11:16*
%MOMM*%
%LPD*%
G01*
G04 APERTURE LIST*
%ADD10C,0.203200*%
%ADD11C,0.254000*%
%ADD12C,0.010000*%
G04 APERTURE END LIST*
D10*
X24500750Y20159963D02*
X24797084Y19270963D01*
X24797084Y19270963D02*
X25093417Y20159963D01*
X25389750Y19270963D02*
X25389750Y20159963D01*
X25389750Y20159963D02*
X25601417Y20159963D01*
X25601417Y20159963D02*
X25728417Y20117630D01*
X25728417Y20117630D02*
X25813084Y20032963D01*
X25813084Y20032963D02*
X25855417Y19948296D01*
X25855417Y19948296D02*
X25897750Y19778963D01*
X25897750Y19778963D02*
X25897750Y19651963D01*
X25897750Y19651963D02*
X25855417Y19482630D01*
X25855417Y19482630D02*
X25813084Y19397963D01*
X25813084Y19397963D02*
X25728417Y19313296D01*
X25728417Y19313296D02*
X25601417Y19270963D01*
X25601417Y19270963D02*
X25389750Y19270963D01*
X26278750Y19270963D02*
X26278750Y20159963D01*
X26278750Y20159963D02*
X26490417Y20159963D01*
X26490417Y20159963D02*
X26617417Y20117630D01*
X26617417Y20117630D02*
X26702084Y20032963D01*
X26702084Y20032963D02*
X26744417Y19948296D01*
X26744417Y19948296D02*
X26786750Y19778963D01*
X26786750Y19778963D02*
X26786750Y19651963D01*
X26786750Y19651963D02*
X26744417Y19482630D01*
X26744417Y19482630D02*
X26702084Y19397963D01*
X26702084Y19397963D02*
X26617417Y19313296D01*
X26617417Y19313296D02*
X26490417Y19270963D01*
X26490417Y19270963D02*
X26278750Y19270963D01*
X24627750Y16832563D02*
X24627750Y17721563D01*
X24627750Y17721563D02*
X24839417Y17721563D01*
X24839417Y17721563D02*
X24966417Y17679230D01*
X24966417Y17679230D02*
X25051084Y17594563D01*
X25051084Y17594563D02*
X25093417Y17509896D01*
X25093417Y17509896D02*
X25135750Y17340563D01*
X25135750Y17340563D02*
X25135750Y17213563D01*
X25135750Y17213563D02*
X25093417Y17044230D01*
X25093417Y17044230D02*
X25051084Y16959563D01*
X25051084Y16959563D02*
X24966417Y16874896D01*
X24966417Y16874896D02*
X24839417Y16832563D01*
X24839417Y16832563D02*
X24627750Y16832563D01*
X25516750Y16832563D02*
X25516750Y17721563D01*
X26109417Y17721563D02*
X26278750Y17721563D01*
X26278750Y17721563D02*
X26363417Y17679230D01*
X26363417Y17679230D02*
X26448083Y17594563D01*
X26448083Y17594563D02*
X26490417Y17425230D01*
X26490417Y17425230D02*
X26490417Y17128896D01*
X26490417Y17128896D02*
X26448083Y16959563D01*
X26448083Y16959563D02*
X26363417Y16874896D01*
X26363417Y16874896D02*
X26278750Y16832563D01*
X26278750Y16832563D02*
X26109417Y16832563D01*
X26109417Y16832563D02*
X26024750Y16874896D01*
X26024750Y16874896D02*
X25940083Y16959563D01*
X25940083Y16959563D02*
X25897750Y17128896D01*
X25897750Y17128896D02*
X25897750Y17425230D01*
X25897750Y17425230D02*
X25940083Y17594563D01*
X25940083Y17594563D02*
X26024750Y17679230D01*
X26024750Y17679230D02*
X26109417Y17721563D01*
X24941017Y12396030D02*
X24856350Y12438363D01*
X24856350Y12438363D02*
X24729350Y12438363D01*
X24729350Y12438363D02*
X24602350Y12396030D01*
X24602350Y12396030D02*
X24517684Y12311363D01*
X24517684Y12311363D02*
X24475350Y12226696D01*
X24475350Y12226696D02*
X24433017Y12057363D01*
X24433017Y12057363D02*
X24433017Y11930363D01*
X24433017Y11930363D02*
X24475350Y11761030D01*
X24475350Y11761030D02*
X24517684Y11676363D01*
X24517684Y11676363D02*
X24602350Y11591696D01*
X24602350Y11591696D02*
X24729350Y11549363D01*
X24729350Y11549363D02*
X24814017Y11549363D01*
X24814017Y11549363D02*
X24941017Y11591696D01*
X24941017Y11591696D02*
X24983350Y11634030D01*
X24983350Y11634030D02*
X24983350Y11930363D01*
X24983350Y11930363D02*
X24814017Y11930363D01*
X25364350Y11549363D02*
X25364350Y12438363D01*
X25364350Y12438363D02*
X25872350Y11549363D01*
X25872350Y11549363D02*
X25872350Y12438363D01*
X26295683Y11549363D02*
X26295683Y12438363D01*
X26295683Y12438363D02*
X26507350Y12438363D01*
X26507350Y12438363D02*
X26634350Y12396030D01*
X26634350Y12396030D02*
X26719017Y12311363D01*
X26719017Y12311363D02*
X26761350Y12226696D01*
X26761350Y12226696D02*
X26803683Y12057363D01*
X26803683Y12057363D02*
X26803683Y11930363D01*
X26803683Y11930363D02*
X26761350Y11761030D01*
X26761350Y11761030D02*
X26719017Y11676363D01*
X26719017Y11676363D02*
X26634350Y11591696D01*
X26634350Y11591696D02*
X26507350Y11549363D01*
X26507350Y11549363D02*
X26295683Y11549363D01*
X10378350Y23331788D02*
X10378350Y24220788D01*
X10378350Y23374121D02*
X10293684Y23331788D01*
X10293684Y23331788D02*
X10124350Y23331788D01*
X10124350Y23331788D02*
X10039684Y23374121D01*
X10039684Y23374121D02*
X9997350Y23416455D01*
X9997350Y23416455D02*
X9955017Y23501121D01*
X9955017Y23501121D02*
X9955017Y23755121D01*
X9955017Y23755121D02*
X9997350Y23839788D01*
X9997350Y23839788D02*
X10039684Y23882121D01*
X10039684Y23882121D02*
X10124350Y23924455D01*
X10124350Y23924455D02*
X10293684Y23924455D01*
X10293684Y23924455D02*
X10378350Y23882121D01*
X10801683Y23331788D02*
X10801683Y24220788D01*
X10801683Y23882121D02*
X10886350Y23924455D01*
X10886350Y23924455D02*
X11055683Y23924455D01*
X11055683Y23924455D02*
X11140350Y23882121D01*
X11140350Y23882121D02*
X11182683Y23839788D01*
X11182683Y23839788D02*
X11225017Y23755121D01*
X11225017Y23755121D02*
X11225017Y23501121D01*
X11225017Y23501121D02*
X11182683Y23416455D01*
X11182683Y23416455D02*
X11140350Y23374121D01*
X11140350Y23374121D02*
X11055683Y23331788D01*
X11055683Y23331788D02*
X10886350Y23331788D01*
X10886350Y23331788D02*
X10801683Y23374121D01*
X11606016Y23670455D02*
X12283350Y23670455D01*
X13045350Y23374121D02*
X12960683Y23331788D01*
X12960683Y23331788D02*
X12791350Y23331788D01*
X12791350Y23331788D02*
X12706683Y23374121D01*
X12706683Y23374121D02*
X12664350Y23458788D01*
X12664350Y23458788D02*
X12664350Y23797455D01*
X12664350Y23797455D02*
X12706683Y23882121D01*
X12706683Y23882121D02*
X12791350Y23924455D01*
X12791350Y23924455D02*
X12960683Y23924455D01*
X12960683Y23924455D02*
X13045350Y23882121D01*
X13045350Y23882121D02*
X13087683Y23797455D01*
X13087683Y23797455D02*
X13087683Y23712788D01*
X13087683Y23712788D02*
X12664350Y23628121D01*
X13595683Y23331788D02*
X13511017Y23374121D01*
X13511017Y23374121D02*
X13468683Y23458788D01*
X13468683Y23458788D02*
X13468683Y24220788D01*
X14273017Y23374121D02*
X14188350Y23331788D01*
X14188350Y23331788D02*
X14019017Y23331788D01*
X14019017Y23331788D02*
X13934350Y23374121D01*
X13934350Y23374121D02*
X13892017Y23458788D01*
X13892017Y23458788D02*
X13892017Y23797455D01*
X13892017Y23797455D02*
X13934350Y23882121D01*
X13934350Y23882121D02*
X14019017Y23924455D01*
X14019017Y23924455D02*
X14188350Y23924455D01*
X14188350Y23924455D02*
X14273017Y23882121D01*
X14273017Y23882121D02*
X14315350Y23797455D01*
X14315350Y23797455D02*
X14315350Y23712788D01*
X14315350Y23712788D02*
X13892017Y23628121D01*
X15077350Y23374121D02*
X14992684Y23331788D01*
X14992684Y23331788D02*
X14823350Y23331788D01*
X14823350Y23331788D02*
X14738684Y23374121D01*
X14738684Y23374121D02*
X14696350Y23416455D01*
X14696350Y23416455D02*
X14654017Y23501121D01*
X14654017Y23501121D02*
X14654017Y23755121D01*
X14654017Y23755121D02*
X14696350Y23839788D01*
X14696350Y23839788D02*
X14738684Y23882121D01*
X14738684Y23882121D02*
X14823350Y23924455D01*
X14823350Y23924455D02*
X14992684Y23924455D01*
X14992684Y23924455D02*
X15077350Y23882121D01*
X15331350Y23924455D02*
X15670017Y23924455D01*
X15458350Y24220788D02*
X15458350Y23458788D01*
X15458350Y23458788D02*
X15500684Y23374121D01*
X15500684Y23374121D02*
X15585350Y23331788D01*
X15585350Y23331788D02*
X15670017Y23331788D01*
X15966350Y23331788D02*
X15966350Y23924455D01*
X15966350Y23755121D02*
X16008684Y23839788D01*
X16008684Y23839788D02*
X16051017Y23882121D01*
X16051017Y23882121D02*
X16135684Y23924455D01*
X16135684Y23924455D02*
X16220350Y23924455D01*
X16643683Y23331788D02*
X16559017Y23374121D01*
X16559017Y23374121D02*
X16516683Y23416455D01*
X16516683Y23416455D02*
X16474350Y23501121D01*
X16474350Y23501121D02*
X16474350Y23755121D01*
X16474350Y23755121D02*
X16516683Y23839788D01*
X16516683Y23839788D02*
X16559017Y23882121D01*
X16559017Y23882121D02*
X16643683Y23924455D01*
X16643683Y23924455D02*
X16770683Y23924455D01*
X16770683Y23924455D02*
X16855350Y23882121D01*
X16855350Y23882121D02*
X16897683Y23839788D01*
X16897683Y23839788D02*
X16940017Y23755121D01*
X16940017Y23755121D02*
X16940017Y23501121D01*
X16940017Y23501121D02*
X16897683Y23416455D01*
X16897683Y23416455D02*
X16855350Y23374121D01*
X16855350Y23374121D02*
X16770683Y23331788D01*
X16770683Y23331788D02*
X16643683Y23331788D01*
X17321016Y23924455D02*
X17321016Y23331788D01*
X17321016Y23839788D02*
X17363350Y23882121D01*
X17363350Y23882121D02*
X17448016Y23924455D01*
X17448016Y23924455D02*
X17575016Y23924455D01*
X17575016Y23924455D02*
X17659683Y23882121D01*
X17659683Y23882121D02*
X17702016Y23797455D01*
X17702016Y23797455D02*
X17702016Y23331788D01*
X18125349Y23331788D02*
X18125349Y23924455D01*
X18125349Y24220788D02*
X18083016Y24178455D01*
X18083016Y24178455D02*
X18125349Y24136121D01*
X18125349Y24136121D02*
X18167683Y24178455D01*
X18167683Y24178455D02*
X18125349Y24220788D01*
X18125349Y24220788D02*
X18125349Y24136121D01*
X18929682Y23374121D02*
X18845016Y23331788D01*
X18845016Y23331788D02*
X18675682Y23331788D01*
X18675682Y23331788D02*
X18591016Y23374121D01*
X18591016Y23374121D02*
X18548682Y23416455D01*
X18548682Y23416455D02*
X18506349Y23501121D01*
X18506349Y23501121D02*
X18506349Y23755121D01*
X18506349Y23755121D02*
X18548682Y23839788D01*
X18548682Y23839788D02*
X18591016Y23882121D01*
X18591016Y23882121D02*
X18675682Y23924455D01*
X18675682Y23924455D02*
X18845016Y23924455D01*
X18845016Y23924455D02*
X18929682Y23882121D01*
X19268349Y23374121D02*
X19353016Y23331788D01*
X19353016Y23331788D02*
X19522349Y23331788D01*
X19522349Y23331788D02*
X19607016Y23374121D01*
X19607016Y23374121D02*
X19649349Y23458788D01*
X19649349Y23458788D02*
X19649349Y23501121D01*
X19649349Y23501121D02*
X19607016Y23585788D01*
X19607016Y23585788D02*
X19522349Y23628121D01*
X19522349Y23628121D02*
X19395349Y23628121D01*
X19395349Y23628121D02*
X19310682Y23670455D01*
X19310682Y23670455D02*
X19268349Y23755121D01*
X19268349Y23755121D02*
X19268349Y23797455D01*
X19268349Y23797455D02*
X19310682Y23882121D01*
X19310682Y23882121D02*
X19395349Y23924455D01*
X19395349Y23924455D02*
X19522349Y23924455D01*
X19522349Y23924455D02*
X19607016Y23882121D01*
X9997350Y21900498D02*
X9997350Y22789498D01*
X9997350Y22789498D02*
X10336017Y22789498D01*
X10336017Y22789498D02*
X10420684Y22747165D01*
X10420684Y22747165D02*
X10463017Y22704831D01*
X10463017Y22704831D02*
X10505350Y22620165D01*
X10505350Y22620165D02*
X10505350Y22493165D01*
X10505350Y22493165D02*
X10463017Y22408498D01*
X10463017Y22408498D02*
X10420684Y22366165D01*
X10420684Y22366165D02*
X10336017Y22323831D01*
X10336017Y22323831D02*
X9997350Y22323831D01*
X11225017Y21942831D02*
X11140350Y21900498D01*
X11140350Y21900498D02*
X10971017Y21900498D01*
X10971017Y21900498D02*
X10886350Y21942831D01*
X10886350Y21942831D02*
X10844017Y22027498D01*
X10844017Y22027498D02*
X10844017Y22366165D01*
X10844017Y22366165D02*
X10886350Y22450831D01*
X10886350Y22450831D02*
X10971017Y22493165D01*
X10971017Y22493165D02*
X11140350Y22493165D01*
X11140350Y22493165D02*
X11225017Y22450831D01*
X11225017Y22450831D02*
X11267350Y22366165D01*
X11267350Y22366165D02*
X11267350Y22281498D01*
X11267350Y22281498D02*
X10844017Y22196831D01*
X11521350Y22493165D02*
X11860017Y22493165D01*
X11648350Y22789498D02*
X11648350Y22027498D01*
X11648350Y22027498D02*
X11690684Y21942831D01*
X11690684Y21942831D02*
X11775350Y21900498D01*
X11775350Y21900498D02*
X11860017Y21900498D01*
X12156350Y21900498D02*
X12156350Y22493165D01*
X12156350Y22789498D02*
X12114017Y22747165D01*
X12114017Y22747165D02*
X12156350Y22704831D01*
X12156350Y22704831D02*
X12198684Y22747165D01*
X12198684Y22747165D02*
X12156350Y22789498D01*
X12156350Y22789498D02*
X12156350Y22704831D01*
X12452683Y22493165D02*
X12791350Y22493165D01*
X12579683Y22789498D02*
X12579683Y22027498D01*
X12579683Y22027498D02*
X12622017Y21942831D01*
X12622017Y21942831D02*
X12706683Y21900498D01*
X12706683Y21900498D02*
X12791350Y21900498D01*
X13087683Y22239165D02*
X13765017Y22239165D01*
X14146017Y21942831D02*
X14273017Y21900498D01*
X14273017Y21900498D02*
X14484684Y21900498D01*
X14484684Y21900498D02*
X14569350Y21942831D01*
X14569350Y21942831D02*
X14611684Y21985165D01*
X14611684Y21985165D02*
X14654017Y22069831D01*
X14654017Y22069831D02*
X14654017Y22154498D01*
X14654017Y22154498D02*
X14611684Y22239165D01*
X14611684Y22239165D02*
X14569350Y22281498D01*
X14569350Y22281498D02*
X14484684Y22323831D01*
X14484684Y22323831D02*
X14315350Y22366165D01*
X14315350Y22366165D02*
X14230684Y22408498D01*
X14230684Y22408498D02*
X14188350Y22450831D01*
X14188350Y22450831D02*
X14146017Y22535498D01*
X14146017Y22535498D02*
X14146017Y22620165D01*
X14146017Y22620165D02*
X14188350Y22704831D01*
X14188350Y22704831D02*
X14230684Y22747165D01*
X14230684Y22747165D02*
X14315350Y22789498D01*
X14315350Y22789498D02*
X14527017Y22789498D01*
X14527017Y22789498D02*
X14654017Y22747165D01*
X14950351Y22789498D02*
X15162017Y21900498D01*
X15162017Y21900498D02*
X15331351Y22535498D01*
X15331351Y22535498D02*
X15500684Y21900498D01*
X15500684Y21900498D02*
X15712351Y22789498D01*
X16051017Y21900498D02*
X16051017Y22789498D01*
X16051017Y22789498D02*
X16262684Y22789498D01*
X16262684Y22789498D02*
X16389684Y22747165D01*
X16389684Y22747165D02*
X16474351Y22662498D01*
X16474351Y22662498D02*
X16516684Y22577831D01*
X16516684Y22577831D02*
X16559017Y22408498D01*
X16559017Y22408498D02*
X16559017Y22281498D01*
X16559017Y22281498D02*
X16516684Y22112165D01*
X16516684Y22112165D02*
X16474351Y22027498D01*
X16474351Y22027498D02*
X16389684Y21942831D01*
X16389684Y21942831D02*
X16262684Y21900498D01*
X16262684Y21900498D02*
X16051017Y21900498D01*
X17532684Y22493165D02*
X17744350Y21900498D01*
X17744350Y21900498D02*
X17956017Y22493165D01*
X18760350Y21900498D02*
X18252350Y21900498D01*
X18506350Y21900498D02*
X18506350Y22789498D01*
X18506350Y22789498D02*
X18421683Y22662498D01*
X18421683Y22662498D02*
X18337017Y22577831D01*
X18337017Y22577831D02*
X18252350Y22535498D01*
X19141350Y21985165D02*
X19183684Y21942831D01*
X19183684Y21942831D02*
X19141350Y21900498D01*
X19141350Y21900498D02*
X19099017Y21942831D01*
X19099017Y21942831D02*
X19141350Y21985165D01*
X19141350Y21985165D02*
X19141350Y21900498D01*
X19734017Y22789498D02*
X19818683Y22789498D01*
X19818683Y22789498D02*
X19903350Y22747165D01*
X19903350Y22747165D02*
X19945683Y22704831D01*
X19945683Y22704831D02*
X19988017Y22620165D01*
X19988017Y22620165D02*
X20030350Y22450831D01*
X20030350Y22450831D02*
X20030350Y22239165D01*
X20030350Y22239165D02*
X19988017Y22069831D01*
X19988017Y22069831D02*
X19945683Y21985165D01*
X19945683Y21985165D02*
X19903350Y21942831D01*
X19903350Y21942831D02*
X19818683Y21900498D01*
X19818683Y21900498D02*
X19734017Y21900498D01*
X19734017Y21900498D02*
X19649350Y21942831D01*
X19649350Y21942831D02*
X19607017Y21985165D01*
X19607017Y21985165D02*
X19564683Y22069831D01*
X19564683Y22069831D02*
X19522350Y22239165D01*
X19522350Y22239165D02*
X19522350Y22450831D01*
X19522350Y22450831D02*
X19564683Y22620165D01*
X19564683Y22620165D02*
X19607017Y22704831D01*
X19607017Y22704831D02*
X19649350Y22747165D01*
X19649350Y22747165D02*
X19734017Y22789498D01*
X9955017Y21273541D02*
X9997350Y21315875D01*
X9997350Y21315875D02*
X10082017Y21358208D01*
X10082017Y21358208D02*
X10293684Y21358208D01*
X10293684Y21358208D02*
X10378350Y21315875D01*
X10378350Y21315875D02*
X10420684Y21273541D01*
X10420684Y21273541D02*
X10463017Y21188875D01*
X10463017Y21188875D02*
X10463017Y21104208D01*
X10463017Y21104208D02*
X10420684Y20977208D01*
X10420684Y20977208D02*
X9912684Y20469208D01*
X9912684Y20469208D02*
X10463017Y20469208D01*
X11013351Y21358208D02*
X11098017Y21358208D01*
X11098017Y21358208D02*
X11182684Y21315875D01*
X11182684Y21315875D02*
X11225017Y21273541D01*
X11225017Y21273541D02*
X11267351Y21188875D01*
X11267351Y21188875D02*
X11309684Y21019541D01*
X11309684Y21019541D02*
X11309684Y20807875D01*
X11309684Y20807875D02*
X11267351Y20638541D01*
X11267351Y20638541D02*
X11225017Y20553875D01*
X11225017Y20553875D02*
X11182684Y20511541D01*
X11182684Y20511541D02*
X11098017Y20469208D01*
X11098017Y20469208D02*
X11013351Y20469208D01*
X11013351Y20469208D02*
X10928684Y20511541D01*
X10928684Y20511541D02*
X10886351Y20553875D01*
X10886351Y20553875D02*
X10844017Y20638541D01*
X10844017Y20638541D02*
X10801684Y20807875D01*
X10801684Y20807875D02*
X10801684Y21019541D01*
X10801684Y21019541D02*
X10844017Y21188875D01*
X10844017Y21188875D02*
X10886351Y21273541D01*
X10886351Y21273541D02*
X10928684Y21315875D01*
X10928684Y21315875D02*
X11013351Y21358208D01*
X11648351Y21273541D02*
X11690684Y21315875D01*
X11690684Y21315875D02*
X11775351Y21358208D01*
X11775351Y21358208D02*
X11987018Y21358208D01*
X11987018Y21358208D02*
X12071684Y21315875D01*
X12071684Y21315875D02*
X12114018Y21273541D01*
X12114018Y21273541D02*
X12156351Y21188875D01*
X12156351Y21188875D02*
X12156351Y21104208D01*
X12156351Y21104208D02*
X12114018Y20977208D01*
X12114018Y20977208D02*
X11606018Y20469208D01*
X11606018Y20469208D02*
X12156351Y20469208D01*
X12918351Y21061875D02*
X12918351Y20469208D01*
X12706685Y21400541D02*
X12495018Y20765541D01*
X12495018Y20765541D02*
X13045351Y20765541D01*
X13384018Y20553875D02*
X13426352Y20511541D01*
X13426352Y20511541D02*
X13384018Y20469208D01*
X13384018Y20469208D02*
X13341685Y20511541D01*
X13341685Y20511541D02*
X13384018Y20553875D01*
X13384018Y20553875D02*
X13384018Y20469208D01*
X13976685Y21358208D02*
X14061351Y21358208D01*
X14061351Y21358208D02*
X14146018Y21315875D01*
X14146018Y21315875D02*
X14188351Y21273541D01*
X14188351Y21273541D02*
X14230685Y21188875D01*
X14230685Y21188875D02*
X14273018Y21019541D01*
X14273018Y21019541D02*
X14273018Y20807875D01*
X14273018Y20807875D02*
X14230685Y20638541D01*
X14230685Y20638541D02*
X14188351Y20553875D01*
X14188351Y20553875D02*
X14146018Y20511541D01*
X14146018Y20511541D02*
X14061351Y20469208D01*
X14061351Y20469208D02*
X13976685Y20469208D01*
X13976685Y20469208D02*
X13892018Y20511541D01*
X13892018Y20511541D02*
X13849685Y20553875D01*
X13849685Y20553875D02*
X13807351Y20638541D01*
X13807351Y20638541D02*
X13765018Y20807875D01*
X13765018Y20807875D02*
X13765018Y21019541D01*
X13765018Y21019541D02*
X13807351Y21188875D01*
X13807351Y21188875D02*
X13849685Y21273541D01*
X13849685Y21273541D02*
X13892018Y21315875D01*
X13892018Y21315875D02*
X13976685Y21358208D01*
X15035018Y21061875D02*
X15035018Y20469208D01*
X14823352Y21400541D02*
X14611685Y20765541D01*
X14611685Y20765541D02*
X15162018Y20765541D01*
X15500685Y20553875D02*
X15543019Y20511541D01*
X15543019Y20511541D02*
X15500685Y20469208D01*
X15500685Y20469208D02*
X15458352Y20511541D01*
X15458352Y20511541D02*
X15500685Y20553875D01*
X15500685Y20553875D02*
X15500685Y20469208D01*
X16093352Y21358208D02*
X16178018Y21358208D01*
X16178018Y21358208D02*
X16262685Y21315875D01*
X16262685Y21315875D02*
X16305018Y21273541D01*
X16305018Y21273541D02*
X16347352Y21188875D01*
X16347352Y21188875D02*
X16389685Y21019541D01*
X16389685Y21019541D02*
X16389685Y20807875D01*
X16389685Y20807875D02*
X16347352Y20638541D01*
X16347352Y20638541D02*
X16305018Y20553875D01*
X16305018Y20553875D02*
X16262685Y20511541D01*
X16262685Y20511541D02*
X16178018Y20469208D01*
X16178018Y20469208D02*
X16093352Y20469208D01*
X16093352Y20469208D02*
X16008685Y20511541D01*
X16008685Y20511541D02*
X15966352Y20553875D01*
X15966352Y20553875D02*
X15924018Y20638541D01*
X15924018Y20638541D02*
X15881685Y20807875D01*
X15881685Y20807875D02*
X15881685Y21019541D01*
X15881685Y21019541D02*
X15924018Y21188875D01*
X15924018Y21188875D02*
X15966352Y21273541D01*
X15966352Y21273541D02*
X16008685Y21315875D01*
X16008685Y21315875D02*
X16093352Y21358208D01*
X16813019Y20469208D02*
X16982352Y20469208D01*
X16982352Y20469208D02*
X17067019Y20511541D01*
X17067019Y20511541D02*
X17109352Y20553875D01*
X17109352Y20553875D02*
X17194019Y20680875D01*
X17194019Y20680875D02*
X17236352Y20850208D01*
X17236352Y20850208D02*
X17236352Y21188875D01*
X17236352Y21188875D02*
X17194019Y21273541D01*
X17194019Y21273541D02*
X17151685Y21315875D01*
X17151685Y21315875D02*
X17067019Y21358208D01*
X17067019Y21358208D02*
X16897685Y21358208D01*
X16897685Y21358208D02*
X16813019Y21315875D01*
X16813019Y21315875D02*
X16770685Y21273541D01*
X16770685Y21273541D02*
X16728352Y21188875D01*
X16728352Y21188875D02*
X16728352Y20977208D01*
X16728352Y20977208D02*
X16770685Y20892541D01*
X16770685Y20892541D02*
X16813019Y20850208D01*
X16813019Y20850208D02*
X16897685Y20807875D01*
X16897685Y20807875D02*
X17067019Y20807875D01*
X17067019Y20807875D02*
X17151685Y20850208D01*
X17151685Y20850208D02*
X17194019Y20892541D01*
X17194019Y20892541D02*
X17236352Y20977208D01*
X25135750Y14275630D02*
X25093417Y14233296D01*
X25093417Y14233296D02*
X24966417Y14190963D01*
X24966417Y14190963D02*
X24881750Y14190963D01*
X24881750Y14190963D02*
X24754750Y14233296D01*
X24754750Y14233296D02*
X24670084Y14317963D01*
X24670084Y14317963D02*
X24627750Y14402630D01*
X24627750Y14402630D02*
X24585417Y14571963D01*
X24585417Y14571963D02*
X24585417Y14698963D01*
X24585417Y14698963D02*
X24627750Y14868296D01*
X24627750Y14868296D02*
X24670084Y14952963D01*
X24670084Y14952963D02*
X24754750Y15037630D01*
X24754750Y15037630D02*
X24881750Y15079963D01*
X24881750Y15079963D02*
X24966417Y15079963D01*
X24966417Y15079963D02*
X25093417Y15037630D01*
X25093417Y15037630D02*
X25135750Y14995296D01*
X25940084Y14190963D02*
X25516750Y14190963D01*
X25516750Y14190963D02*
X25516750Y15079963D01*
X26236417Y14190963D02*
X26236417Y15079963D01*
X26744417Y14190963D02*
X26363417Y14698963D01*
X26744417Y15079963D02*
X26236417Y14571963D01*
X2631350Y30671965D02*
X2631350Y29952298D01*
X2631350Y29952298D02*
X2589017Y29867631D01*
X2589017Y29867631D02*
X2546684Y29825298D01*
X2546684Y29825298D02*
X2462017Y29782965D01*
X2462017Y29782965D02*
X2335017Y29782965D01*
X2335017Y29782965D02*
X2250350Y29825298D01*
X2631350Y30121631D02*
X2546684Y30079298D01*
X2546684Y30079298D02*
X2377350Y30079298D01*
X2377350Y30079298D02*
X2292684Y30121631D01*
X2292684Y30121631D02*
X2250350Y30163965D01*
X2250350Y30163965D02*
X2208017Y30248631D01*
X2208017Y30248631D02*
X2208017Y30502631D01*
X2208017Y30502631D02*
X2250350Y30587298D01*
X2250350Y30587298D02*
X2292684Y30629631D01*
X2292684Y30629631D02*
X2377350Y30671965D01*
X2377350Y30671965D02*
X2546684Y30671965D01*
X2546684Y30671965D02*
X2631350Y30629631D01*
X3054683Y30079298D02*
X3054683Y30671965D01*
X3054683Y30968298D02*
X3012350Y30925965D01*
X3012350Y30925965D02*
X3054683Y30883631D01*
X3054683Y30883631D02*
X3097017Y30925965D01*
X3097017Y30925965D02*
X3054683Y30968298D01*
X3054683Y30968298D02*
X3054683Y30883631D01*
X3351016Y30671965D02*
X3689683Y30671965D01*
X3478016Y30968298D02*
X3478016Y30206298D01*
X3478016Y30206298D02*
X3520350Y30121631D01*
X3520350Y30121631D02*
X3605016Y30079298D01*
X3605016Y30079298D02*
X3689683Y30079298D01*
X3986016Y30079298D02*
X3986016Y30968298D01*
X4367016Y30079298D02*
X4367016Y30544965D01*
X4367016Y30544965D02*
X4324683Y30629631D01*
X4324683Y30629631D02*
X4240016Y30671965D01*
X4240016Y30671965D02*
X4113016Y30671965D01*
X4113016Y30671965D02*
X4028350Y30629631D01*
X4028350Y30629631D02*
X3986016Y30587298D01*
X5171349Y30671965D02*
X5171349Y30079298D01*
X4790349Y30671965D02*
X4790349Y30206298D01*
X4790349Y30206298D02*
X4832683Y30121631D01*
X4832683Y30121631D02*
X4917349Y30079298D01*
X4917349Y30079298D02*
X5044349Y30079298D01*
X5044349Y30079298D02*
X5129016Y30121631D01*
X5129016Y30121631D02*
X5171349Y30163965D01*
X5594682Y30079298D02*
X5594682Y30968298D01*
X5594682Y30629631D02*
X5679349Y30671965D01*
X5679349Y30671965D02*
X5848682Y30671965D01*
X5848682Y30671965D02*
X5933349Y30629631D01*
X5933349Y30629631D02*
X5975682Y30587298D01*
X5975682Y30587298D02*
X6018016Y30502631D01*
X6018016Y30502631D02*
X6018016Y30248631D01*
X6018016Y30248631D02*
X5975682Y30163965D01*
X5975682Y30163965D02*
X5933349Y30121631D01*
X5933349Y30121631D02*
X5848682Y30079298D01*
X5848682Y30079298D02*
X5679349Y30079298D01*
X5679349Y30079298D02*
X5594682Y30121631D01*
X6399015Y30163965D02*
X6441349Y30121631D01*
X6441349Y30121631D02*
X6399015Y30079298D01*
X6399015Y30079298D02*
X6356682Y30121631D01*
X6356682Y30121631D02*
X6399015Y30163965D01*
X6399015Y30163965D02*
X6399015Y30079298D01*
X7203348Y30121631D02*
X7118682Y30079298D01*
X7118682Y30079298D02*
X6949348Y30079298D01*
X6949348Y30079298D02*
X6864682Y30121631D01*
X6864682Y30121631D02*
X6822348Y30163965D01*
X6822348Y30163965D02*
X6780015Y30248631D01*
X6780015Y30248631D02*
X6780015Y30502631D01*
X6780015Y30502631D02*
X6822348Y30587298D01*
X6822348Y30587298D02*
X6864682Y30629631D01*
X6864682Y30629631D02*
X6949348Y30671965D01*
X6949348Y30671965D02*
X7118682Y30671965D01*
X7118682Y30671965D02*
X7203348Y30629631D01*
X7711348Y30079298D02*
X7626682Y30121631D01*
X7626682Y30121631D02*
X7584348Y30163965D01*
X7584348Y30163965D02*
X7542015Y30248631D01*
X7542015Y30248631D02*
X7542015Y30502631D01*
X7542015Y30502631D02*
X7584348Y30587298D01*
X7584348Y30587298D02*
X7626682Y30629631D01*
X7626682Y30629631D02*
X7711348Y30671965D01*
X7711348Y30671965D02*
X7838348Y30671965D01*
X7838348Y30671965D02*
X7923015Y30629631D01*
X7923015Y30629631D02*
X7965348Y30587298D01*
X7965348Y30587298D02*
X8007682Y30502631D01*
X8007682Y30502631D02*
X8007682Y30248631D01*
X8007682Y30248631D02*
X7965348Y30163965D01*
X7965348Y30163965D02*
X7923015Y30121631D01*
X7923015Y30121631D02*
X7838348Y30079298D01*
X7838348Y30079298D02*
X7711348Y30079298D01*
X8388681Y30079298D02*
X8388681Y30671965D01*
X8388681Y30587298D02*
X8431015Y30629631D01*
X8431015Y30629631D02*
X8515681Y30671965D01*
X8515681Y30671965D02*
X8642681Y30671965D01*
X8642681Y30671965D02*
X8727348Y30629631D01*
X8727348Y30629631D02*
X8769681Y30544965D01*
X8769681Y30544965D02*
X8769681Y30079298D01*
X8769681Y30544965D02*
X8812015Y30629631D01*
X8812015Y30629631D02*
X8896681Y30671965D01*
X8896681Y30671965D02*
X9023681Y30671965D01*
X9023681Y30671965D02*
X9108348Y30629631D01*
X9108348Y30629631D02*
X9150681Y30544965D01*
X9150681Y30544965D02*
X9150681Y30079298D01*
X10209014Y31010631D02*
X9447014Y29867631D01*
X10886347Y30079298D02*
X10886347Y30968298D01*
X10886347Y30121631D02*
X10801681Y30079298D01*
X10801681Y30079298D02*
X10632347Y30079298D01*
X10632347Y30079298D02*
X10547681Y30121631D01*
X10547681Y30121631D02*
X10505347Y30163965D01*
X10505347Y30163965D02*
X10463014Y30248631D01*
X10463014Y30248631D02*
X10463014Y30502631D01*
X10463014Y30502631D02*
X10505347Y30587298D01*
X10505347Y30587298D02*
X10547681Y30629631D01*
X10547681Y30629631D02*
X10632347Y30671965D01*
X10632347Y30671965D02*
X10801681Y30671965D01*
X10801681Y30671965D02*
X10886347Y30629631D01*
X11309680Y30079298D02*
X11309680Y30968298D01*
X11309680Y30629631D02*
X11394347Y30671965D01*
X11394347Y30671965D02*
X11563680Y30671965D01*
X11563680Y30671965D02*
X11648347Y30629631D01*
X11648347Y30629631D02*
X11690680Y30587298D01*
X11690680Y30587298D02*
X11733014Y30502631D01*
X11733014Y30502631D02*
X11733014Y30248631D01*
X11733014Y30248631D02*
X11690680Y30163965D01*
X11690680Y30163965D02*
X11648347Y30121631D01*
X11648347Y30121631D02*
X11563680Y30079298D01*
X11563680Y30079298D02*
X11394347Y30079298D01*
X11394347Y30079298D02*
X11309680Y30121631D01*
X12114013Y30417965D02*
X12791347Y30417965D01*
X13553347Y30121631D02*
X13468680Y30079298D01*
X13468680Y30079298D02*
X13299347Y30079298D01*
X13299347Y30079298D02*
X13214680Y30121631D01*
X13214680Y30121631D02*
X13172347Y30206298D01*
X13172347Y30206298D02*
X13172347Y30544965D01*
X13172347Y30544965D02*
X13214680Y30629631D01*
X13214680Y30629631D02*
X13299347Y30671965D01*
X13299347Y30671965D02*
X13468680Y30671965D01*
X13468680Y30671965D02*
X13553347Y30629631D01*
X13553347Y30629631D02*
X13595680Y30544965D01*
X13595680Y30544965D02*
X13595680Y30460298D01*
X13595680Y30460298D02*
X13172347Y30375631D01*
X14103680Y30079298D02*
X14019014Y30121631D01*
X14019014Y30121631D02*
X13976680Y30206298D01*
X13976680Y30206298D02*
X13976680Y30968298D01*
X14781014Y30121631D02*
X14696347Y30079298D01*
X14696347Y30079298D02*
X14527014Y30079298D01*
X14527014Y30079298D02*
X14442347Y30121631D01*
X14442347Y30121631D02*
X14400014Y30206298D01*
X14400014Y30206298D02*
X14400014Y30544965D01*
X14400014Y30544965D02*
X14442347Y30629631D01*
X14442347Y30629631D02*
X14527014Y30671965D01*
X14527014Y30671965D02*
X14696347Y30671965D01*
X14696347Y30671965D02*
X14781014Y30629631D01*
X14781014Y30629631D02*
X14823347Y30544965D01*
X14823347Y30544965D02*
X14823347Y30460298D01*
X14823347Y30460298D02*
X14400014Y30375631D01*
X15585347Y30121631D02*
X15500681Y30079298D01*
X15500681Y30079298D02*
X15331347Y30079298D01*
X15331347Y30079298D02*
X15246681Y30121631D01*
X15246681Y30121631D02*
X15204347Y30163965D01*
X15204347Y30163965D02*
X15162014Y30248631D01*
X15162014Y30248631D02*
X15162014Y30502631D01*
X15162014Y30502631D02*
X15204347Y30587298D01*
X15204347Y30587298D02*
X15246681Y30629631D01*
X15246681Y30629631D02*
X15331347Y30671965D01*
X15331347Y30671965D02*
X15500681Y30671965D01*
X15500681Y30671965D02*
X15585347Y30629631D01*
X15839347Y30671965D02*
X16178014Y30671965D01*
X15966347Y30968298D02*
X15966347Y30206298D01*
X15966347Y30206298D02*
X16008681Y30121631D01*
X16008681Y30121631D02*
X16093347Y30079298D01*
X16093347Y30079298D02*
X16178014Y30079298D01*
X16474347Y30079298D02*
X16474347Y30671965D01*
X16474347Y30502631D02*
X16516681Y30587298D01*
X16516681Y30587298D02*
X16559014Y30629631D01*
X16559014Y30629631D02*
X16643681Y30671965D01*
X16643681Y30671965D02*
X16728347Y30671965D01*
X17151680Y30079298D02*
X17067014Y30121631D01*
X17067014Y30121631D02*
X17024680Y30163965D01*
X17024680Y30163965D02*
X16982347Y30248631D01*
X16982347Y30248631D02*
X16982347Y30502631D01*
X16982347Y30502631D02*
X17024680Y30587298D01*
X17024680Y30587298D02*
X17067014Y30629631D01*
X17067014Y30629631D02*
X17151680Y30671965D01*
X17151680Y30671965D02*
X17278680Y30671965D01*
X17278680Y30671965D02*
X17363347Y30629631D01*
X17363347Y30629631D02*
X17405680Y30587298D01*
X17405680Y30587298D02*
X17448014Y30502631D01*
X17448014Y30502631D02*
X17448014Y30248631D01*
X17448014Y30248631D02*
X17405680Y30163965D01*
X17405680Y30163965D02*
X17363347Y30121631D01*
X17363347Y30121631D02*
X17278680Y30079298D01*
X17278680Y30079298D02*
X17151680Y30079298D01*
X17829013Y30671965D02*
X17829013Y30079298D01*
X17829013Y30587298D02*
X17871347Y30629631D01*
X17871347Y30629631D02*
X17956013Y30671965D01*
X17956013Y30671965D02*
X18083013Y30671965D01*
X18083013Y30671965D02*
X18167680Y30629631D01*
X18167680Y30629631D02*
X18210013Y30544965D01*
X18210013Y30544965D02*
X18210013Y30079298D01*
X18633346Y30079298D02*
X18633346Y30671965D01*
X18633346Y30968298D02*
X18591013Y30925965D01*
X18591013Y30925965D02*
X18633346Y30883631D01*
X18633346Y30883631D02*
X18675680Y30925965D01*
X18675680Y30925965D02*
X18633346Y30968298D01*
X18633346Y30968298D02*
X18633346Y30883631D01*
X19437679Y30121631D02*
X19353013Y30079298D01*
X19353013Y30079298D02*
X19183679Y30079298D01*
X19183679Y30079298D02*
X19099013Y30121631D01*
X19099013Y30121631D02*
X19056679Y30163965D01*
X19056679Y30163965D02*
X19014346Y30248631D01*
X19014346Y30248631D02*
X19014346Y30502631D01*
X19014346Y30502631D02*
X19056679Y30587298D01*
X19056679Y30587298D02*
X19099013Y30629631D01*
X19099013Y30629631D02*
X19183679Y30671965D01*
X19183679Y30671965D02*
X19353013Y30671965D01*
X19353013Y30671965D02*
X19437679Y30629631D01*
X19776346Y30121631D02*
X19861013Y30079298D01*
X19861013Y30079298D02*
X20030346Y30079298D01*
X20030346Y30079298D02*
X20115013Y30121631D01*
X20115013Y30121631D02*
X20157346Y30206298D01*
X20157346Y30206298D02*
X20157346Y30248631D01*
X20157346Y30248631D02*
X20115013Y30333298D01*
X20115013Y30333298D02*
X20030346Y30375631D01*
X20030346Y30375631D02*
X19903346Y30375631D01*
X19903346Y30375631D02*
X19818679Y30417965D01*
X19818679Y30417965D02*
X19776346Y30502631D01*
X19776346Y30502631D02*
X19776346Y30544965D01*
X19776346Y30544965D02*
X19818679Y30629631D01*
X19818679Y30629631D02*
X19903346Y30671965D01*
X19903346Y30671965D02*
X20030346Y30671965D01*
X20030346Y30671965D02*
X20115013Y30629631D01*
X21173346Y31010631D02*
X20411346Y29867631D01*
X21469679Y30671965D02*
X21469679Y29782965D01*
X21469679Y30629631D02*
X21554346Y30671965D01*
X21554346Y30671965D02*
X21723679Y30671965D01*
X21723679Y30671965D02*
X21808346Y30629631D01*
X21808346Y30629631D02*
X21850679Y30587298D01*
X21850679Y30587298D02*
X21893013Y30502631D01*
X21893013Y30502631D02*
X21893013Y30248631D01*
X21893013Y30248631D02*
X21850679Y30163965D01*
X21850679Y30163965D02*
X21808346Y30121631D01*
X21808346Y30121631D02*
X21723679Y30079298D01*
X21723679Y30079298D02*
X21554346Y30079298D01*
X21554346Y30079298D02*
X21469679Y30121631D01*
X22612679Y30121631D02*
X22528012Y30079298D01*
X22528012Y30079298D02*
X22358679Y30079298D01*
X22358679Y30079298D02*
X22274012Y30121631D01*
X22274012Y30121631D02*
X22231679Y30206298D01*
X22231679Y30206298D02*
X22231679Y30544965D01*
X22231679Y30544965D02*
X22274012Y30629631D01*
X22274012Y30629631D02*
X22358679Y30671965D01*
X22358679Y30671965D02*
X22528012Y30671965D01*
X22528012Y30671965D02*
X22612679Y30629631D01*
X22612679Y30629631D02*
X22655012Y30544965D01*
X22655012Y30544965D02*
X22655012Y30460298D01*
X22655012Y30460298D02*
X22231679Y30375631D01*
X22909012Y30671965D02*
X23247679Y30671965D01*
X23036012Y30968298D02*
X23036012Y30206298D01*
X23036012Y30206298D02*
X23078346Y30121631D01*
X23078346Y30121631D02*
X23163012Y30079298D01*
X23163012Y30079298D02*
X23247679Y30079298D01*
X23544012Y30079298D02*
X23544012Y30671965D01*
X23544012Y30968298D02*
X23501679Y30925965D01*
X23501679Y30925965D02*
X23544012Y30883631D01*
X23544012Y30883631D02*
X23586346Y30925965D01*
X23586346Y30925965D02*
X23544012Y30968298D01*
X23544012Y30968298D02*
X23544012Y30883631D01*
X23840345Y30671965D02*
X24179012Y30671965D01*
X23967345Y30968298D02*
X23967345Y30206298D01*
X23967345Y30206298D02*
X24009679Y30121631D01*
X24009679Y30121631D02*
X24094345Y30079298D01*
X24094345Y30079298D02*
X24179012Y30079298D01*
X24475345Y30417965D02*
X25152679Y30417965D01*
X25576012Y30671965D02*
X25576012Y29909965D01*
X25576012Y29909965D02*
X25533679Y29825298D01*
X25533679Y29825298D02*
X25449012Y29782965D01*
X25449012Y29782965D02*
X25406679Y29782965D01*
X25576012Y30968298D02*
X25533679Y30925965D01*
X25533679Y30925965D02*
X25576012Y30883631D01*
X25576012Y30883631D02*
X25618346Y30925965D01*
X25618346Y30925965D02*
X25576012Y30968298D01*
X25576012Y30968298D02*
X25576012Y30883631D01*
X25872345Y30671965D02*
X26211012Y30671965D01*
X25999345Y30968298D02*
X25999345Y30206298D01*
X25999345Y30206298D02*
X26041679Y30121631D01*
X26041679Y30121631D02*
X26126345Y30079298D01*
X26126345Y30079298D02*
X26211012Y30079298D01*
X26888345Y30079298D02*
X26888345Y30544965D01*
X26888345Y30544965D02*
X26846012Y30629631D01*
X26846012Y30629631D02*
X26761345Y30671965D01*
X26761345Y30671965D02*
X26592012Y30671965D01*
X26592012Y30671965D02*
X26507345Y30629631D01*
X26888345Y30121631D02*
X26803679Y30079298D01*
X26803679Y30079298D02*
X26592012Y30079298D01*
X26592012Y30079298D02*
X26507345Y30121631D01*
X26507345Y30121631D02*
X26465012Y30206298D01*
X26465012Y30206298D02*
X26465012Y30290965D01*
X26465012Y30290965D02*
X26507345Y30375631D01*
X26507345Y30375631D02*
X26592012Y30417965D01*
X26592012Y30417965D02*
X26803679Y30417965D01*
X26803679Y30417965D02*
X26888345Y30460298D01*
X27692678Y30671965D02*
X27692678Y29952298D01*
X27692678Y29952298D02*
X27650345Y29867631D01*
X27650345Y29867631D02*
X27608012Y29825298D01*
X27608012Y29825298D02*
X27523345Y29782965D01*
X27523345Y29782965D02*
X27396345Y29782965D01*
X27396345Y29782965D02*
X27311678Y29825298D01*
X27692678Y30121631D02*
X27608012Y30079298D01*
X27608012Y30079298D02*
X27438678Y30079298D01*
X27438678Y30079298D02*
X27354012Y30121631D01*
X27354012Y30121631D02*
X27311678Y30163965D01*
X27311678Y30163965D02*
X27269345Y30248631D01*
X27269345Y30248631D02*
X27269345Y30502631D01*
X27269345Y30502631D02*
X27311678Y30587298D01*
X27311678Y30587298D02*
X27354012Y30629631D01*
X27354012Y30629631D02*
X27438678Y30671965D01*
X27438678Y30671965D02*
X27608012Y30671965D01*
X27608012Y30671965D02*
X27692678Y30629631D01*
X28116011Y30417965D02*
X28793345Y30417965D01*
X29216678Y30079298D02*
X29216678Y30968298D01*
X29301345Y30417965D02*
X29555345Y30079298D01*
X29555345Y30671965D02*
X29216678Y30333298D01*
X29936345Y30079298D02*
X29936345Y30671965D01*
X29936345Y30968298D02*
X29894012Y30925965D01*
X29894012Y30925965D02*
X29936345Y30883631D01*
X29936345Y30883631D02*
X29978679Y30925965D01*
X29978679Y30925965D02*
X29936345Y30968298D01*
X29936345Y30968298D02*
X29936345Y30883631D01*
X30740678Y30121631D02*
X30656012Y30079298D01*
X30656012Y30079298D02*
X30486678Y30079298D01*
X30486678Y30079298D02*
X30402012Y30121631D01*
X30402012Y30121631D02*
X30359678Y30163965D01*
X30359678Y30163965D02*
X30317345Y30248631D01*
X30317345Y30248631D02*
X30317345Y30502631D01*
X30317345Y30502631D02*
X30359678Y30587298D01*
X30359678Y30587298D02*
X30402012Y30629631D01*
X30402012Y30629631D02*
X30486678Y30671965D01*
X30486678Y30671965D02*
X30656012Y30671965D01*
X30656012Y30671965D02*
X30740678Y30629631D01*
X31502678Y30079298D02*
X31502678Y30544965D01*
X31502678Y30544965D02*
X31460345Y30629631D01*
X31460345Y30629631D02*
X31375678Y30671965D01*
X31375678Y30671965D02*
X31206345Y30671965D01*
X31206345Y30671965D02*
X31121678Y30629631D01*
X31502678Y30121631D02*
X31418012Y30079298D01*
X31418012Y30079298D02*
X31206345Y30079298D01*
X31206345Y30079298D02*
X31121678Y30121631D01*
X31121678Y30121631D02*
X31079345Y30206298D01*
X31079345Y30206298D02*
X31079345Y30290965D01*
X31079345Y30290965D02*
X31121678Y30375631D01*
X31121678Y30375631D02*
X31206345Y30417965D01*
X31206345Y30417965D02*
X31418012Y30417965D01*
X31418012Y30417965D02*
X31502678Y30460298D01*
X32307011Y30079298D02*
X32307011Y30968298D01*
X32307011Y30121631D02*
X32222345Y30079298D01*
X32222345Y30079298D02*
X32053011Y30079298D01*
X32053011Y30079298D02*
X31968345Y30121631D01*
X31968345Y30121631D02*
X31926011Y30163965D01*
X31926011Y30163965D02*
X31883678Y30248631D01*
X31883678Y30248631D02*
X31883678Y30502631D01*
X31883678Y30502631D02*
X31926011Y30587298D01*
X31926011Y30587298D02*
X31968345Y30629631D01*
X31968345Y30629631D02*
X32053011Y30671965D01*
X32053011Y30671965D02*
X32222345Y30671965D01*
X32222345Y30671965D02*
X32307011Y30629631D01*
X11366499Y11080098D02*
X11366499Y10360431D01*
X11366499Y10360431D02*
X11408833Y10275765D01*
X11408833Y10275765D02*
X11451166Y10233431D01*
X11451166Y10233431D02*
X11535833Y10191098D01*
X11535833Y10191098D02*
X11705166Y10191098D01*
X11705166Y10191098D02*
X11789833Y10233431D01*
X11789833Y10233431D02*
X11832166Y10275765D01*
X11832166Y10275765D02*
X11874499Y10360431D01*
X11874499Y10360431D02*
X11874499Y11080098D01*
X12763499Y10191098D02*
X12255499Y10191098D01*
X12509499Y10191098D02*
X12509499Y11080098D01*
X12509499Y11080098D02*
X12424832Y10953098D01*
X12424832Y10953098D02*
X12340166Y10868431D01*
X12340166Y10868431D02*
X12255499Y10826098D01*
X13313833Y11080098D02*
X13398499Y11080098D01*
X13398499Y11080098D02*
X13483166Y11037765D01*
X13483166Y11037765D02*
X13525499Y10995431D01*
X13525499Y10995431D02*
X13567833Y10910765D01*
X13567833Y10910765D02*
X13610166Y10741431D01*
X13610166Y10741431D02*
X13610166Y10529765D01*
X13610166Y10529765D02*
X13567833Y10360431D01*
X13567833Y10360431D02*
X13525499Y10275765D01*
X13525499Y10275765D02*
X13483166Y10233431D01*
X13483166Y10233431D02*
X13398499Y10191098D01*
X13398499Y10191098D02*
X13313833Y10191098D01*
X13313833Y10191098D02*
X13229166Y10233431D01*
X13229166Y10233431D02*
X13186833Y10275765D01*
X13186833Y10275765D02*
X13144499Y10360431D01*
X13144499Y10360431D02*
X13102166Y10529765D01*
X13102166Y10529765D02*
X13102166Y10741431D01*
X13102166Y10741431D02*
X13144499Y10910765D01*
X13144499Y10910765D02*
X13186833Y10995431D01*
X13186833Y10995431D02*
X13229166Y11037765D01*
X13229166Y11037765D02*
X13313833Y11080098D01*
X14456833Y10191098D02*
X13948833Y10191098D01*
X14202833Y10191098D02*
X14202833Y11080098D01*
X14202833Y11080098D02*
X14118166Y10953098D01*
X14118166Y10953098D02*
X14033500Y10868431D01*
X14033500Y10868431D02*
X13948833Y10826098D01*
X20293135Y16454967D02*
X20335469Y16412634D01*
X20335469Y16412634D02*
X20377802Y16285634D01*
X20377802Y16285634D02*
X20377802Y16200967D01*
X20377802Y16200967D02*
X20335469Y16073967D01*
X20335469Y16073967D02*
X20250802Y15989300D01*
X20250802Y15989300D02*
X20166135Y15946967D01*
X20166135Y15946967D02*
X19996802Y15904634D01*
X19996802Y15904634D02*
X19869802Y15904634D01*
X19869802Y15904634D02*
X19700469Y15946967D01*
X19700469Y15946967D02*
X19615802Y15989300D01*
X19615802Y15989300D02*
X19531135Y16073967D01*
X19531135Y16073967D02*
X19488802Y16200967D01*
X19488802Y16200967D02*
X19488802Y16285634D01*
X19488802Y16285634D02*
X19531135Y16412634D01*
X19531135Y16412634D02*
X19573469Y16454967D01*
X20377802Y17301634D02*
X20377802Y16793634D01*
X20377802Y17047634D02*
X19488802Y17047634D01*
X19488802Y17047634D02*
X19615802Y16962967D01*
X19615802Y16962967D02*
X19700469Y16878300D01*
X19700469Y16878300D02*
X19742802Y16793634D01*
X19488802Y17851967D02*
X19488802Y17936634D01*
X19488802Y17936634D02*
X19531135Y18021301D01*
X19531135Y18021301D02*
X19573469Y18063634D01*
X19573469Y18063634D02*
X19658135Y18105967D01*
X19658135Y18105967D02*
X19827469Y18148301D01*
X19827469Y18148301D02*
X20039135Y18148301D01*
X20039135Y18148301D02*
X20208469Y18105967D01*
X20208469Y18105967D02*
X20293135Y18063634D01*
X20293135Y18063634D02*
X20335469Y18021301D01*
X20335469Y18021301D02*
X20377802Y17936634D01*
X20377802Y17936634D02*
X20377802Y17851967D01*
X20377802Y17851967D02*
X20335469Y17767301D01*
X20335469Y17767301D02*
X20293135Y17724967D01*
X20293135Y17724967D02*
X20208469Y17682634D01*
X20208469Y17682634D02*
X20039135Y17640301D01*
X20039135Y17640301D02*
X19827469Y17640301D01*
X19827469Y17640301D02*
X19658135Y17682634D01*
X19658135Y17682634D02*
X19573469Y17724967D01*
X19573469Y17724967D02*
X19531135Y17767301D01*
X19531135Y17767301D02*
X19488802Y17851967D01*
X19573469Y18486968D02*
X19531135Y18529301D01*
X19531135Y18529301D02*
X19488802Y18613968D01*
X19488802Y18613968D02*
X19488802Y18825634D01*
X19488802Y18825634D02*
X19531135Y18910301D01*
X19531135Y18910301D02*
X19573469Y18952634D01*
X19573469Y18952634D02*
X19658135Y18994968D01*
X19658135Y18994968D02*
X19742802Y18994968D01*
X19742802Y18994968D02*
X19869802Y18952634D01*
X19869802Y18952634D02*
X20377802Y18444634D01*
X20377802Y18444634D02*
X20377802Y18994968D01*
X20267735Y11222567D02*
X20310069Y11180234D01*
X20310069Y11180234D02*
X20352402Y11053234D01*
X20352402Y11053234D02*
X20352402Y10968567D01*
X20352402Y10968567D02*
X20310069Y10841567D01*
X20310069Y10841567D02*
X20225402Y10756900D01*
X20225402Y10756900D02*
X20140735Y10714567D01*
X20140735Y10714567D02*
X19971402Y10672234D01*
X19971402Y10672234D02*
X19844402Y10672234D01*
X19844402Y10672234D02*
X19675069Y10714567D01*
X19675069Y10714567D02*
X19590402Y10756900D01*
X19590402Y10756900D02*
X19505735Y10841567D01*
X19505735Y10841567D02*
X19463402Y10968567D01*
X19463402Y10968567D02*
X19463402Y11053234D01*
X19463402Y11053234D02*
X19505735Y11180234D01*
X19505735Y11180234D02*
X19548069Y11222567D01*
X20352402Y12069234D02*
X20352402Y11561234D01*
X20352402Y11815234D02*
X19463402Y11815234D01*
X19463402Y11815234D02*
X19590402Y11730567D01*
X19590402Y11730567D02*
X19675069Y11645900D01*
X19675069Y11645900D02*
X19717402Y11561234D01*
X19463402Y12619567D02*
X19463402Y12704234D01*
X19463402Y12704234D02*
X19505735Y12788901D01*
X19505735Y12788901D02*
X19548069Y12831234D01*
X19548069Y12831234D02*
X19632735Y12873567D01*
X19632735Y12873567D02*
X19802069Y12915901D01*
X19802069Y12915901D02*
X20013735Y12915901D01*
X20013735Y12915901D02*
X20183069Y12873567D01*
X20183069Y12873567D02*
X20267735Y12831234D01*
X20267735Y12831234D02*
X20310069Y12788901D01*
X20310069Y12788901D02*
X20352402Y12704234D01*
X20352402Y12704234D02*
X20352402Y12619567D01*
X20352402Y12619567D02*
X20310069Y12534901D01*
X20310069Y12534901D02*
X20267735Y12492567D01*
X20267735Y12492567D02*
X20183069Y12450234D01*
X20183069Y12450234D02*
X20013735Y12407901D01*
X20013735Y12407901D02*
X19802069Y12407901D01*
X19802069Y12407901D02*
X19632735Y12450234D01*
X19632735Y12450234D02*
X19548069Y12492567D01*
X19548069Y12492567D02*
X19505735Y12534901D01*
X19505735Y12534901D02*
X19463402Y12619567D01*
X20352402Y13762568D02*
X20352402Y13254568D01*
X20352402Y13508568D02*
X19463402Y13508568D01*
X19463402Y13508568D02*
X19590402Y13423901D01*
X19590402Y13423901D02*
X19675069Y13339234D01*
X19675069Y13339234D02*
X19717402Y13254568D01*
D11*
%TO.C,CON102*%
X27305000Y20955000D02*
X27305000Y10795000D01*
X27305000Y20955000D02*
X27559000Y20701000D01*
X27305000Y20320000D02*
X27940000Y20955000D01*
X27305000Y10795000D02*
X29845000Y10795000D01*
X29210000Y20955000D02*
X29845000Y20320000D01*
X29845000Y20955000D02*
X27305000Y20955000D01*
X29845000Y20955000D02*
X29591000Y20701000D01*
X29845000Y10795000D02*
X29845000Y20955000D01*
%TO.C,CON104*%
X-8015000Y11750000D02*
X185000Y11750000D01*
X-8015000Y11750000D02*
X-8015000Y23850000D01*
X8485000Y11750000D02*
X4285000Y11750000D01*
X8485000Y11750000D02*
X8485000Y23850000D01*
X-8015000Y23850000D02*
X185000Y23850000D01*
X8485000Y23850000D02*
X4185000Y23850000D01*
%TO.C,CON105*%
X21018500Y19354800D02*
X21018500Y11734800D01*
X21018500Y19354800D02*
X21272500Y19100800D01*
X21018500Y18719800D02*
X21653500Y19354800D01*
X21018500Y11734800D02*
X23558500Y11734800D01*
X22923500Y19354800D02*
X23558500Y18719800D01*
X23558500Y19354800D02*
X21018500Y19354800D01*
X23558500Y19354800D02*
X23304500Y19100800D01*
X23558500Y11734800D02*
X23558500Y19354800D01*
%TO.C,CON101*%
X381000Y381000D02*
X15113000Y381000D01*
X381000Y381000D02*
X381000Y9525000D01*
X15113000Y381000D02*
X15113000Y1397000D01*
X19177000Y381000D02*
X33909000Y381000D01*
X33909000Y381000D02*
X33909000Y9525000D01*
X15113000Y1397000D02*
X19177000Y1397000D01*
X19177000Y1397000D02*
X19177000Y381000D01*
X33909000Y9525000D02*
X381000Y9525000D01*
%TO.C,CON106*%
X3410000Y15265400D02*
X3156000Y15519400D01*
X3410000Y15265400D02*
X870000Y15265400D01*
X3410000Y20345400D02*
X3410000Y15265400D01*
X2775000Y15265400D02*
X3410000Y15900400D01*
X1505000Y15265400D02*
X870000Y15900400D01*
X870000Y15265400D02*
X1124000Y15519400D01*
X870000Y15265400D02*
X870000Y20345400D01*
X870000Y20345400D02*
X3410000Y20345400D01*
D10*
%TO.C,U101*%
X15227100Y18813800D02*
X11977100Y18813800D01*
X15227100Y18813800D02*
X15227100Y11513800D01*
X11977100Y18813800D02*
X11977100Y11513800D01*
X11977100Y11513800D02*
X15227100Y11513800D01*
%TO.C,logo102*%
D12*
X32073110Y23522588D02*
X32168440Y23505703D01*
X32197796Y23489667D01*
X32197453Y23425980D01*
X32146982Y23369154D01*
X32077318Y23350504D01*
X32063866Y23354086D01*
X31973443Y23354765D01*
X31912523Y23276473D01*
X31881362Y23119694D01*
X31877000Y23002984D01*
X31874261Y22855772D01*
X31862100Y22774291D01*
X31834602Y22739675D01*
X31792334Y22733000D01*
X31752758Y22739147D01*
X31727879Y22768128D01*
X31714322Y22835753D01*
X31708712Y22957831D01*
X31707667Y23129599D01*
X31707667Y23526197D01*
X31940152Y23528286D01*
X32073110Y23522588D01*
G36*
X32073110Y23522588D02*
G01*
X32168440Y23505703D01*
X32197796Y23489667D01*
X32197453Y23425980D01*
X32146982Y23369154D01*
X32077318Y23350504D01*
X32063866Y23354086D01*
X31973443Y23354765D01*
X31912523Y23276473D01*
X31881362Y23119694D01*
X31877000Y23002984D01*
X31874261Y22855772D01*
X31862100Y22774291D01*
X31834602Y22739675D01*
X31792334Y22733000D01*
X31752758Y22739147D01*
X31727879Y22768128D01*
X31714322Y22835753D01*
X31708712Y22957831D01*
X31707667Y23129599D01*
X31707667Y23526197D01*
X31940152Y23528286D01*
X32073110Y23522588D01*
G37*
X31867973Y22334812D02*
X31972916Y22320679D01*
X32004710Y22309229D01*
X32035713Y22258084D01*
X32003229Y22201266D01*
X31925209Y22156268D01*
X31831418Y22140334D01*
X31767796Y22136719D01*
X31730920Y22113349D01*
X31712083Y22051434D01*
X31702579Y21932184D01*
X31699018Y21854584D01*
X31689786Y21701826D01*
X31674135Y21614168D01*
X31644916Y21572042D01*
X31594983Y21555886D01*
X31589620Y21555093D01*
X31544481Y21551859D01*
X31516736Y21568048D01*
X31502946Y21619098D01*
X31499675Y21720445D01*
X31503485Y21887529D01*
X31504953Y21935329D01*
X31517167Y22329308D01*
X31732265Y22336989D01*
X31867973Y22334812D01*
G36*
X31867973Y22334812D02*
G01*
X31972916Y22320679D01*
X32004710Y22309229D01*
X32035713Y22258084D01*
X32003229Y22201266D01*
X31925209Y22156268D01*
X31831418Y22140334D01*
X31767796Y22136719D01*
X31730920Y22113349D01*
X31712083Y22051434D01*
X31702579Y21932184D01*
X31699018Y21854584D01*
X31689786Y21701826D01*
X31674135Y21614168D01*
X31644916Y21572042D01*
X31594983Y21555886D01*
X31589620Y21555093D01*
X31544481Y21551859D01*
X31516736Y21568048D01*
X31502946Y21619098D01*
X31499675Y21720445D01*
X31503485Y21887529D01*
X31504953Y21935329D01*
X31517167Y22329308D01*
X31732265Y22336989D01*
X31867973Y22334812D01*
G37*
X28601421Y22332130D02*
X28617334Y22304484D01*
X28637430Y22281795D01*
X28680284Y22309211D01*
X28753922Y22335837D01*
X28848479Y22334183D01*
X28927718Y22309178D01*
X28956000Y22271711D01*
X28918173Y22205687D01*
X28822495Y22152696D01*
X28744334Y22133807D01*
X28687825Y22120010D01*
X28654747Y22085047D01*
X28637319Y22009173D01*
X28627762Y21872642D01*
X28625983Y21833417D01*
X28616435Y21680376D01*
X28600611Y21593848D01*
X28572459Y21555679D01*
X28530733Y21547667D01*
X28492248Y21554188D01*
X28467956Y21584191D01*
X28454633Y21653341D01*
X28449057Y21777302D01*
X28448000Y21949834D01*
X28449279Y22136752D01*
X28455318Y22254722D01*
X28469426Y22319448D01*
X28494907Y22346636D01*
X28532667Y22352000D01*
X28601421Y22332130D01*
G36*
X28601421Y22332130D02*
G01*
X28617334Y22304484D01*
X28637430Y22281795D01*
X28680284Y22309211D01*
X28753922Y22335837D01*
X28848479Y22334183D01*
X28927718Y22309178D01*
X28956000Y22271711D01*
X28918173Y22205687D01*
X28822495Y22152696D01*
X28744334Y22133807D01*
X28687825Y22120010D01*
X28654747Y22085047D01*
X28637319Y22009173D01*
X28627762Y21872642D01*
X28625983Y21833417D01*
X28616435Y21680376D01*
X28600611Y21593848D01*
X28572459Y21555679D01*
X28530733Y21547667D01*
X28492248Y21554188D01*
X28467956Y21584191D01*
X28454633Y21653341D01*
X28449057Y21777302D01*
X28448000Y21949834D01*
X28449279Y22136752D01*
X28455318Y22254722D01*
X28469426Y22319448D01*
X28494907Y22346636D01*
X28532667Y22352000D01*
X28601421Y22332130D01*
G37*
X32668310Y23518736D02*
X32745728Y23478415D01*
X32799549Y23423532D01*
X32783543Y23368798D01*
X32771375Y23353311D01*
X32712729Y23310296D01*
X32639886Y23334972D01*
X32635244Y23337838D01*
X32533997Y23364075D01*
X32452165Y23315484D01*
X32401628Y23201564D01*
X32393193Y23144232D01*
X32409622Y23011806D01*
X32475992Y22933775D01*
X32577961Y22921716D01*
X32639875Y22945135D01*
X32737314Y22970346D01*
X32797714Y22933057D01*
X32808334Y22885464D01*
X32772022Y22829787D01*
X32684411Y22775691D01*
X32577489Y22739981D01*
X32520592Y22734288D01*
X32424023Y22756265D01*
X32370450Y22780944D01*
X32282730Y22872610D01*
X32219678Y23012785D01*
X32194389Y23166110D01*
X32200582Y23239661D01*
X32265428Y23382545D01*
X32380378Y23483422D01*
X32522362Y23532186D01*
X32668310Y23518736D01*
G36*
X32668310Y23518736D02*
G01*
X32745728Y23478415D01*
X32799549Y23423532D01*
X32783543Y23368798D01*
X32771375Y23353311D01*
X32712729Y23310296D01*
X32639886Y23334972D01*
X32635244Y23337838D01*
X32533997Y23364075D01*
X32452165Y23315484D01*
X32401628Y23201564D01*
X32393193Y23144232D01*
X32409622Y23011806D01*
X32475992Y22933775D01*
X32577961Y22921716D01*
X32639875Y22945135D01*
X32737314Y22970346D01*
X32797714Y22933057D01*
X32808334Y22885464D01*
X32772022Y22829787D01*
X32684411Y22775691D01*
X32577489Y22739981D01*
X32520592Y22734288D01*
X32424023Y22756265D01*
X32370450Y22780944D01*
X32282730Y22872610D01*
X32219678Y23012785D01*
X32194389Y23166110D01*
X32200582Y23239661D01*
X32265428Y23382545D01*
X32380378Y23483422D01*
X32522362Y23532186D01*
X32668310Y23518736D01*
G37*
X28815562Y23518858D02*
X28931226Y23477962D01*
X28999950Y23392435D01*
X29032749Y23249077D01*
X29040667Y23050500D01*
X29038586Y22887984D01*
X29029308Y22792615D01*
X29008278Y22746913D01*
X28970940Y22733399D01*
X28957934Y22733000D01*
X28912900Y22742973D01*
X28885962Y22785070D01*
X28870933Y22877564D01*
X28862684Y23014331D01*
X28849514Y23180253D01*
X28824746Y23281041D01*
X28783142Y23335990D01*
X28773604Y23342414D01*
X28691266Y23357380D01*
X28628294Y23295821D01*
X28588332Y23164407D01*
X28575000Y22978909D01*
X28571706Y22839808D01*
X28557318Y22765636D01*
X28525079Y22736768D01*
X28490334Y22733000D01*
X28450758Y22739147D01*
X28425879Y22768128D01*
X28412322Y22835753D01*
X28406712Y22957831D01*
X28405667Y23129599D01*
X28405667Y23526197D01*
X28641945Y23528321D01*
X28815562Y23518858D01*
G36*
X28815562Y23518858D02*
G01*
X28931226Y23477962D01*
X28999950Y23392435D01*
X29032749Y23249077D01*
X29040667Y23050500D01*
X29038586Y22887984D01*
X29029308Y22792615D01*
X29008278Y22746913D01*
X28970940Y22733399D01*
X28957934Y22733000D01*
X28912900Y22742973D01*
X28885962Y22785070D01*
X28870933Y22877564D01*
X28862684Y23014331D01*
X28849514Y23180253D01*
X28824746Y23281041D01*
X28783142Y23335990D01*
X28773604Y23342414D01*
X28691266Y23357380D01*
X28628294Y23295821D01*
X28588332Y23164407D01*
X28575000Y22978909D01*
X28571706Y22839808D01*
X28557318Y22765636D01*
X28525079Y22736768D01*
X28490334Y22733000D01*
X28450758Y22739147D01*
X28425879Y22768128D01*
X28412322Y22835753D01*
X28406712Y22957831D01*
X28405667Y23129599D01*
X28405667Y23526197D01*
X28641945Y23528321D01*
X28815562Y23518858D01*
G37*
X30635285Y23499870D02*
X30747959Y23395497D01*
X30809874Y23236243D01*
X30818667Y23135167D01*
X30788669Y22954097D01*
X30708097Y22822933D01*
X30591085Y22750166D01*
X30451768Y22744284D01*
X30304278Y22813777D01*
X30295209Y22820740D01*
X30228399Y22885756D01*
X30194961Y22964243D01*
X30184122Y23086865D01*
X30183751Y23128804D01*
X30353000Y23128804D01*
X30379069Y23008295D01*
X30442694Y22938599D01*
X30522001Y22925207D01*
X30595118Y22973610D01*
X30633905Y23058292D01*
X30636675Y23178609D01*
X30613281Y23265289D01*
X30546714Y23350707D01*
X30471370Y23363998D01*
X30403781Y23313833D01*
X30360479Y23208881D01*
X30353000Y23128804D01*
X30183751Y23128804D01*
X30183667Y23138240D01*
X30207385Y23336226D01*
X30279646Y23465933D01*
X30402111Y23529584D01*
X30481924Y23537334D01*
X30635285Y23499870D01*
G36*
X30635285Y23499870D02*
G01*
X30747959Y23395497D01*
X30809874Y23236243D01*
X30818667Y23135167D01*
X30788669Y22954097D01*
X30708097Y22822933D01*
X30591085Y22750166D01*
X30451768Y22744284D01*
X30304278Y22813777D01*
X30295209Y22820740D01*
X30228399Y22885756D01*
X30194961Y22964243D01*
X30184122Y23086865D01*
X30183751Y23128804D01*
X30353000Y23128804D01*
X30379069Y23008295D01*
X30442694Y22938599D01*
X30522001Y22925207D01*
X30595118Y22973610D01*
X30633905Y23058292D01*
X30636675Y23178609D01*
X30613281Y23265289D01*
X30546714Y23350707D01*
X30471370Y23363998D01*
X30403781Y23313833D01*
X30360479Y23208881D01*
X30353000Y23128804D01*
X30183751Y23128804D01*
X30183667Y23138240D01*
X30207385Y23336226D01*
X30279646Y23465933D01*
X30402111Y23529584D01*
X30481924Y23537334D01*
X30635285Y23499870D01*
G37*
X26695316Y23478714D02*
X26787151Y23362621D01*
X26835404Y23197111D01*
X26839334Y23127534D01*
X26808724Y22949523D01*
X26726760Y22820790D01*
X26608239Y22750007D01*
X26467958Y22745848D01*
X26320715Y22816983D01*
X26315876Y22820740D01*
X26247957Y22887422D01*
X26214636Y22968495D01*
X26204559Y23095526D01*
X26204334Y23130860D01*
X26205695Y23153933D01*
X26380918Y23153933D01*
X26391585Y23022953D01*
X26439683Y22958759D01*
X26536217Y22926501D01*
X26616432Y22966511D01*
X26663792Y23066390D01*
X26670000Y23131473D01*
X26644778Y23267467D01*
X26582966Y23342850D01*
X26505344Y23356010D01*
X26432693Y23305330D01*
X26385793Y23189197D01*
X26380918Y23153933D01*
X26205695Y23153933D01*
X26213147Y23280182D01*
X26246176Y23377772D01*
X26302312Y23445288D01*
X26438496Y23528568D01*
X26574297Y23536869D01*
X26695316Y23478714D01*
G36*
X26695316Y23478714D02*
G01*
X26787151Y23362621D01*
X26835404Y23197111D01*
X26839334Y23127534D01*
X26808724Y22949523D01*
X26726760Y22820790D01*
X26608239Y22750007D01*
X26467958Y22745848D01*
X26320715Y22816983D01*
X26315876Y22820740D01*
X26247957Y22887422D01*
X26214636Y22968495D01*
X26204559Y23095526D01*
X26204334Y23130860D01*
X26205695Y23153933D01*
X26380918Y23153933D01*
X26391585Y23022953D01*
X26439683Y22958759D01*
X26536217Y22926501D01*
X26616432Y22966511D01*
X26663792Y23066390D01*
X26670000Y23131473D01*
X26644778Y23267467D01*
X26582966Y23342850D01*
X26505344Y23356010D01*
X26432693Y23305330D01*
X26385793Y23189197D01*
X26380918Y23153933D01*
X26205695Y23153933D01*
X26213147Y23280182D01*
X26246176Y23377772D01*
X26302312Y23445288D01*
X26438496Y23528568D01*
X26574297Y23536869D01*
X26695316Y23478714D01*
G37*
X31493214Y23531196D02*
X31518088Y23502252D01*
X31531654Y23434703D01*
X31537278Y23312754D01*
X31538334Y23140052D01*
X31538334Y22742770D01*
X31325324Y22742770D01*
X31128198Y22765470D01*
X31018408Y22818781D01*
X30968775Y22869916D01*
X30940293Y22938134D01*
X30927393Y23046359D01*
X30924500Y23205480D01*
X30926421Y23365739D01*
X30935856Y23460112D01*
X30958315Y23507354D01*
X30999311Y23526224D01*
X31019750Y23529695D01*
X31069546Y23531626D01*
X31098053Y23508011D01*
X31111185Y23441325D01*
X31114856Y23314046D01*
X31115000Y23247473D01*
X31122127Y23068210D01*
X31147216Y22963561D01*
X31195831Y22924384D01*
X31273536Y22941539D01*
X31294917Y22951877D01*
X31337103Y22991714D01*
X31360072Y23069621D01*
X31368565Y23205550D01*
X31369000Y23263657D01*
X31371667Y23412084D01*
X31383536Y23494666D01*
X31410408Y23530155D01*
X31453667Y23537334D01*
X31493214Y23531196D01*
G36*
X31493214Y23531196D02*
G01*
X31518088Y23502252D01*
X31531654Y23434703D01*
X31537278Y23312754D01*
X31538334Y23140052D01*
X31538334Y22742770D01*
X31325324Y22742770D01*
X31128198Y22765470D01*
X31018408Y22818781D01*
X30968775Y22869916D01*
X30940293Y22938134D01*
X30927393Y23046359D01*
X30924500Y23205480D01*
X30926421Y23365739D01*
X30935856Y23460112D01*
X30958315Y23507354D01*
X30999311Y23526224D01*
X31019750Y23529695D01*
X31069546Y23531626D01*
X31098053Y23508011D01*
X31111185Y23441325D01*
X31114856Y23314046D01*
X31115000Y23247473D01*
X31122127Y23068210D01*
X31147216Y22963561D01*
X31195831Y22924384D01*
X31273536Y22941539D01*
X31294917Y22951877D01*
X31337103Y22991714D01*
X31360072Y23069621D01*
X31368565Y23205550D01*
X31369000Y23263657D01*
X31371667Y23412084D01*
X31383536Y23494666D01*
X31410408Y23530155D01*
X31453667Y23537334D01*
X31493214Y23531196D01*
G37*
X28138777Y23497344D02*
X28242415Y23398296D01*
X28304114Y23244923D01*
X28306660Y23230417D01*
X28332078Y23071667D01*
X28093706Y23071667D01*
X27949453Y23065699D01*
X27874830Y23045359D01*
X27855334Y23011020D01*
X27890728Y22949103D01*
X27974877Y22918508D01*
X28074729Y22928735D01*
X28101249Y22940341D01*
X28189217Y22958881D01*
X28229848Y22934219D01*
X28273629Y22872507D01*
X28249321Y22825082D01*
X28170842Y22782129D01*
X28018610Y22737068D01*
X27888982Y22761726D01*
X27800793Y22818183D01*
X27695197Y22951881D01*
X27657156Y23124346D01*
X27684334Y23293917D01*
X27865917Y23293917D01*
X27887946Y23253773D01*
X27982334Y23241000D01*
X28079373Y23254978D01*
X28098750Y23293917D01*
X28047725Y23335239D01*
X27982334Y23346834D01*
X27898547Y23326878D01*
X27865917Y23293917D01*
X27684334Y23293917D01*
X27686059Y23304679D01*
X27766840Y23445736D01*
X27881928Y23523345D01*
X28012261Y23539788D01*
X28138777Y23497344D01*
G36*
X28138777Y23497344D02*
G01*
X28242415Y23398296D01*
X28304114Y23244923D01*
X28306660Y23230417D01*
X28332078Y23071667D01*
X28093706Y23071667D01*
X27949453Y23065699D01*
X27874830Y23045359D01*
X27855334Y23011020D01*
X27890728Y22949103D01*
X27974877Y22918508D01*
X28074729Y22928735D01*
X28101249Y22940341D01*
X28189217Y22958881D01*
X28229848Y22934219D01*
X28273629Y22872507D01*
X28249321Y22825082D01*
X28170842Y22782129D01*
X28018610Y22737068D01*
X27888982Y22761726D01*
X27800793Y22818183D01*
X27695197Y22951881D01*
X27657156Y23124346D01*
X27684334Y23293917D01*
X27865917Y23293917D01*
X27887946Y23253773D01*
X27982334Y23241000D01*
X28079373Y23254978D01*
X28098750Y23293917D01*
X28047725Y23335239D01*
X27982334Y23346834D01*
X27898547Y23326878D01*
X27865917Y23293917D01*
X27684334Y23293917D01*
X27686059Y23304679D01*
X27766840Y23445736D01*
X27881928Y23523345D01*
X28012261Y23539788D01*
X28138777Y23497344D01*
G37*
X29877085Y23527310D02*
X29990844Y23488356D01*
X30064110Y23435456D01*
X30064508Y23387210D01*
X30003639Y23354067D01*
X29893103Y23346476D01*
X29840057Y23352534D01*
X29731875Y23363462D01*
X29684255Y23346104D01*
X29675667Y23309911D01*
X29709141Y23255180D01*
X29793247Y23241000D01*
X29943843Y23209732D01*
X30051821Y23126202D01*
X30098423Y23005823D01*
X30099000Y22989784D01*
X30079066Y22884375D01*
X30039278Y22820802D01*
X29913404Y22763528D01*
X29751719Y22751651D01*
X29590764Y22786601D01*
X29556701Y22801914D01*
X29468754Y22852972D01*
X29447716Y22891956D01*
X29477679Y22934155D01*
X29547724Y22972805D01*
X29625612Y22948800D01*
X29746230Y22908180D01*
X29853521Y22911212D01*
X29911425Y22949400D01*
X29909241Y23006532D01*
X29840479Y23050581D01*
X29723200Y23070728D01*
X29708393Y23071019D01*
X29587455Y23108018D01*
X29508453Y23200526D01*
X29488512Y23323099D01*
X29501966Y23377679D01*
X29583308Y23484655D01*
X29714160Y23535848D01*
X29877085Y23527310D01*
G36*
X29877085Y23527310D02*
G01*
X29990844Y23488356D01*
X30064110Y23435456D01*
X30064508Y23387210D01*
X30003639Y23354067D01*
X29893103Y23346476D01*
X29840057Y23352534D01*
X29731875Y23363462D01*
X29684255Y23346104D01*
X29675667Y23309911D01*
X29709141Y23255180D01*
X29793247Y23241000D01*
X29943843Y23209732D01*
X30051821Y23126202D01*
X30098423Y23005823D01*
X30099000Y22989784D01*
X30079066Y22884375D01*
X30039278Y22820802D01*
X29913404Y22763528D01*
X29751719Y22751651D01*
X29590764Y22786601D01*
X29556701Y22801914D01*
X29468754Y22852972D01*
X29447716Y22891956D01*
X29477679Y22934155D01*
X29547724Y22972805D01*
X29625612Y22948800D01*
X29746230Y22908180D01*
X29853521Y22911212D01*
X29911425Y22949400D01*
X29909241Y23006532D01*
X29840479Y23050581D01*
X29723200Y23070728D01*
X29708393Y23071019D01*
X29587455Y23108018D01*
X29508453Y23200526D01*
X29488512Y23323099D01*
X29501966Y23377679D01*
X29583308Y23484655D01*
X29714160Y23535848D01*
X29877085Y23527310D01*
G37*
X31173847Y22322833D02*
X31286650Y22270918D01*
X31326152Y22225962D01*
X31347915Y22144197D01*
X31363339Y22007792D01*
X31369000Y21851334D01*
X31369000Y21556768D01*
X31120608Y21553271D01*
X30959456Y21558822D01*
X30858540Y21584611D01*
X30803108Y21626138D01*
X30736367Y21746590D01*
X30737583Y21763621D01*
X30921895Y21763621D01*
X30923074Y21761641D01*
X30987990Y21724778D01*
X31081482Y21729273D01*
X31163066Y21767500D01*
X31191826Y21812250D01*
X31178302Y21870662D01*
X31107521Y21885686D01*
X30994223Y21867169D01*
X30925827Y21822095D01*
X30921895Y21763621D01*
X30737583Y21763621D01*
X30744501Y21860426D01*
X30818199Y21951989D01*
X30948152Y22005626D01*
X31033357Y22013334D01*
X31150540Y22024461D01*
X31197492Y22060820D01*
X31199667Y22076027D01*
X31161371Y22132824D01*
X31059052Y22166244D01*
X30911564Y22170225D01*
X30907618Y22169908D01*
X30815587Y22183303D01*
X30790988Y22229400D01*
X30836736Y22286072D01*
X30888869Y22312215D01*
X31030723Y22338675D01*
X31173847Y22322833D01*
G36*
X31173847Y22322833D02*
G01*
X31286650Y22270918D01*
X31326152Y22225962D01*
X31347915Y22144197D01*
X31363339Y22007792D01*
X31369000Y21851334D01*
X31369000Y21556768D01*
X31120608Y21553271D01*
X30959456Y21558822D01*
X30858540Y21584611D01*
X30803108Y21626138D01*
X30736367Y21746590D01*
X30737583Y21763621D01*
X30921895Y21763621D01*
X30923074Y21761641D01*
X30987990Y21724778D01*
X31081482Y21729273D01*
X31163066Y21767500D01*
X31191826Y21812250D01*
X31178302Y21870662D01*
X31107521Y21885686D01*
X30994223Y21867169D01*
X30925827Y21822095D01*
X30921895Y21763621D01*
X30737583Y21763621D01*
X30744501Y21860426D01*
X30818199Y21951989D01*
X30948152Y22005626D01*
X31033357Y22013334D01*
X31150540Y22024461D01*
X31197492Y22060820D01*
X31199667Y22076027D01*
X31161371Y22132824D01*
X31059052Y22166244D01*
X30911564Y22170225D01*
X30907618Y22169908D01*
X30815587Y22183303D01*
X30790988Y22229400D01*
X30836736Y22286072D01*
X30888869Y22312215D01*
X31030723Y22338675D01*
X31173847Y22322833D01*
G37*
X33316791Y23498957D02*
X33424104Y23398736D01*
X33481305Y23259037D01*
X33485667Y23206522D01*
X33485667Y23071667D01*
X33249306Y23071667D01*
X33099758Y23061625D01*
X33032429Y23031472D01*
X33047284Y22981171D01*
X33117624Y22926834D01*
X33204362Y22905843D01*
X33277171Y22936823D01*
X33358164Y22970376D01*
X33424256Y22942833D01*
X33429830Y22938307D01*
X33467675Y22893048D01*
X33444944Y22847477D01*
X33400657Y22808877D01*
X33256286Y22741114D01*
X33101596Y22748680D01*
X32961674Y22830000D01*
X32954576Y22836910D01*
X32869680Y22970518D01*
X32843420Y23124787D01*
X32866416Y23262621D01*
X33039122Y23262621D01*
X33073407Y23244532D01*
X33161655Y23241000D01*
X33262206Y23249002D01*
X33294524Y23278101D01*
X33289309Y23304500D01*
X33231306Y23359205D01*
X33189988Y23368000D01*
X33100617Y23337440D01*
X33062334Y23304500D01*
X33039122Y23262621D01*
X32866416Y23262621D01*
X32869174Y23279148D01*
X32940322Y23413030D01*
X33050241Y23505864D01*
X33180030Y23537334D01*
X33316791Y23498957D01*
G36*
X33316791Y23498957D02*
G01*
X33424104Y23398736D01*
X33481305Y23259037D01*
X33485667Y23206522D01*
X33485667Y23071667D01*
X33249306Y23071667D01*
X33099758Y23061625D01*
X33032429Y23031472D01*
X33047284Y22981171D01*
X33117624Y22926834D01*
X33204362Y22905843D01*
X33277171Y22936823D01*
X33358164Y22970376D01*
X33424256Y22942833D01*
X33429830Y22938307D01*
X33467675Y22893048D01*
X33444944Y22847477D01*
X33400657Y22808877D01*
X33256286Y22741114D01*
X33101596Y22748680D01*
X32961674Y22830000D01*
X32954576Y22836910D01*
X32869680Y22970518D01*
X32843420Y23124787D01*
X32866416Y23262621D01*
X33039122Y23262621D01*
X33073407Y23244532D01*
X33161655Y23241000D01*
X33262206Y23249002D01*
X33294524Y23278101D01*
X33289309Y23304500D01*
X33231306Y23359205D01*
X33189988Y23368000D01*
X33100617Y23337440D01*
X33062334Y23304500D01*
X33039122Y23262621D01*
X32866416Y23262621D01*
X32869174Y23279148D01*
X32940322Y23413030D01*
X33050241Y23505864D01*
X33180030Y23537334D01*
X33316791Y23498957D01*
G37*
X28085286Y22333733D02*
X28184581Y22286100D01*
X28232563Y22243316D01*
X28260879Y22184159D01*
X28274545Y22087425D01*
X28278575Y21931906D01*
X28278667Y21888312D01*
X28278667Y21556424D01*
X28044255Y21553624D01*
X27885424Y21560837D01*
X27782673Y21591689D01*
X27726755Y21633912D01*
X27655901Y21731222D01*
X27656980Y21791084D01*
X27863175Y21791084D01*
X27872438Y21737791D01*
X27940298Y21718093D01*
X27979229Y21717000D01*
X28073127Y21729263D01*
X28107292Y21776212D01*
X28109334Y21804479D01*
X28092648Y21866995D01*
X28026929Y21881453D01*
X27993279Y21878562D01*
X27896765Y21842422D01*
X27863175Y21791084D01*
X27656980Y21791084D01*
X27657619Y21826458D01*
X27709567Y21919248D01*
X27785364Y21987124D01*
X27902439Y22012283D01*
X27945505Y22013334D01*
X28054967Y22019905D01*
X28099442Y22045682D01*
X28100823Y22087417D01*
X28062704Y22140914D01*
X27965394Y22160839D01*
X27932394Y22161500D01*
X27799282Y22174172D01*
X27739313Y22209563D01*
X27756803Y22263733D01*
X27789408Y22291962D01*
X27929247Y22346177D01*
X28085286Y22333733D01*
G36*
X28085286Y22333733D02*
G01*
X28184581Y22286100D01*
X28232563Y22243316D01*
X28260879Y22184159D01*
X28274545Y22087425D01*
X28278575Y21931906D01*
X28278667Y21888312D01*
X28278667Y21556424D01*
X28044255Y21553624D01*
X27885424Y21560837D01*
X27782673Y21591689D01*
X27726755Y21633912D01*
X27655901Y21731222D01*
X27656980Y21791084D01*
X27863175Y21791084D01*
X27872438Y21737791D01*
X27940298Y21718093D01*
X27979229Y21717000D01*
X28073127Y21729263D01*
X28107292Y21776212D01*
X28109334Y21804479D01*
X28092648Y21866995D01*
X28026929Y21881453D01*
X27993279Y21878562D01*
X27896765Y21842422D01*
X27863175Y21791084D01*
X27656980Y21791084D01*
X27657619Y21826458D01*
X27709567Y21919248D01*
X27785364Y21987124D01*
X27902439Y22012283D01*
X27945505Y22013334D01*
X28054967Y22019905D01*
X28099442Y22045682D01*
X28100823Y22087417D01*
X28062704Y22140914D01*
X27965394Y22160839D01*
X27932394Y22161500D01*
X27799282Y22174172D01*
X27739313Y22209563D01*
X27756803Y22263733D01*
X27789408Y22291962D01*
X27929247Y22346177D01*
X28085286Y22333733D01*
G37*
X32471053Y22313375D02*
X32591604Y22212031D01*
X32666600Y22069768D01*
X32681334Y21969009D01*
X32670786Y21921397D01*
X32625924Y21896452D01*
X32526920Y21887226D01*
X32445396Y21886334D01*
X32310336Y21882696D01*
X32241809Y21867771D01*
X32221846Y21835538D01*
X32224217Y21812250D01*
X32257386Y21762011D01*
X32343404Y21740545D01*
X32413909Y21738167D01*
X32557620Y21726623D01*
X32626052Y21693678D01*
X32616024Y21641865D01*
X32577926Y21607706D01*
X32455922Y21560024D01*
X32305252Y21552881D01*
X32172492Y21587993D01*
X32164417Y21592459D01*
X32097302Y21671642D01*
X32047928Y21802367D01*
X32025464Y21951942D01*
X32032764Y22061905D01*
X32053344Y22107307D01*
X32217425Y22107307D01*
X32225938Y22054008D01*
X32294784Y22017984D01*
X32342667Y22013334D01*
X32440757Y22031046D01*
X32469667Y22072305D01*
X32434395Y22137371D01*
X32351623Y22166490D01*
X32279167Y22155643D01*
X32217425Y22107307D01*
X32053344Y22107307D01*
X32083112Y22172978D01*
X32173117Y22275267D01*
X32274995Y22341209D01*
X32325217Y22352000D01*
X32471053Y22313375D01*
G36*
X32471053Y22313375D02*
G01*
X32591604Y22212031D01*
X32666600Y22069768D01*
X32681334Y21969009D01*
X32670786Y21921397D01*
X32625924Y21896452D01*
X32526920Y21887226D01*
X32445396Y21886334D01*
X32310336Y21882696D01*
X32241809Y21867771D01*
X32221846Y21835538D01*
X32224217Y21812250D01*
X32257386Y21762011D01*
X32343404Y21740545D01*
X32413909Y21738167D01*
X32557620Y21726623D01*
X32626052Y21693678D01*
X32616024Y21641865D01*
X32577926Y21607706D01*
X32455922Y21560024D01*
X32305252Y21552881D01*
X32172492Y21587993D01*
X32164417Y21592459D01*
X32097302Y21671642D01*
X32047928Y21802367D01*
X32025464Y21951942D01*
X32032764Y22061905D01*
X32053344Y22107307D01*
X32217425Y22107307D01*
X32225938Y22054008D01*
X32294784Y22017984D01*
X32342667Y22013334D01*
X32440757Y22031046D01*
X32469667Y22072305D01*
X32434395Y22137371D01*
X32351623Y22166490D01*
X32279167Y22155643D01*
X32217425Y22107307D01*
X32053344Y22107307D01*
X32083112Y22172978D01*
X32173117Y22275267D01*
X32274995Y22341209D01*
X32325217Y22352000D01*
X32471053Y22313375D01*
G37*
X29541057Y22643624D02*
X29564722Y22620452D01*
X29579439Y22565252D01*
X29587316Y22464460D01*
X29590465Y22304509D01*
X29591000Y22103995D01*
X29591000Y21559655D01*
X29337718Y21556064D01*
X29188239Y21558835D01*
X29097657Y21577149D01*
X29040627Y21618038D01*
X29020218Y21644156D01*
X28971414Y21766207D01*
X28953838Y21925203D01*
X28954525Y21934110D01*
X29125334Y21934110D01*
X29149606Y21810480D01*
X29209625Y21737253D01*
X29286197Y21722866D01*
X29360127Y21775755D01*
X29385614Y21819712D01*
X29412072Y21940791D01*
X29394748Y22059430D01*
X29340468Y22142060D01*
X29317424Y22155032D01*
X29235943Y22147656D01*
X29166169Y22078625D01*
X29127785Y21970577D01*
X29125334Y21934110D01*
X28954525Y21934110D01*
X28966400Y22087877D01*
X29008006Y22220960D01*
X29040667Y22267334D01*
X29153547Y22341813D01*
X29275152Y22336660D01*
X29339783Y22308178D01*
X29389794Y22288990D01*
X29413835Y22313467D01*
X29421257Y22398527D01*
X29421667Y22456344D01*
X29427117Y22575960D01*
X29449789Y22632757D01*
X29499159Y22648231D01*
X29506334Y22648334D01*
X29541057Y22643624D01*
G36*
X29541057Y22643624D02*
G01*
X29564722Y22620452D01*
X29579439Y22565252D01*
X29587316Y22464460D01*
X29590465Y22304509D01*
X29591000Y22103995D01*
X29591000Y21559655D01*
X29337718Y21556064D01*
X29188239Y21558835D01*
X29097657Y21577149D01*
X29040627Y21618038D01*
X29020218Y21644156D01*
X28971414Y21766207D01*
X28953838Y21925203D01*
X28954525Y21934110D01*
X29125334Y21934110D01*
X29149606Y21810480D01*
X29209625Y21737253D01*
X29286197Y21722866D01*
X29360127Y21775755D01*
X29385614Y21819712D01*
X29412072Y21940791D01*
X29394748Y22059430D01*
X29340468Y22142060D01*
X29317424Y22155032D01*
X29235943Y22147656D01*
X29166169Y22078625D01*
X29127785Y21970577D01*
X29125334Y21934110D01*
X28954525Y21934110D01*
X28966400Y22087877D01*
X29008006Y22220960D01*
X29040667Y22267334D01*
X29153547Y22341813D01*
X29275152Y22336660D01*
X29339783Y22308178D01*
X29389794Y22288990D01*
X29413835Y22313467D01*
X29421257Y22398527D01*
X29421667Y22456344D01*
X29427117Y22575960D01*
X29449789Y22632757D01*
X29499159Y22648231D01*
X29506334Y22648334D01*
X29541057Y22643624D01*
G37*
X30718303Y22342142D02*
X30734000Y22328593D01*
X30722607Y22280361D01*
X30692032Y22170283D01*
X30647683Y22017531D01*
X30620057Y21924545D01*
X30563782Y21744586D01*
X30520730Y21632513D01*
X30483235Y21574162D01*
X30443629Y21555370D01*
X30420731Y21556369D01*
X30360015Y21589873D01*
X30307799Y21680587D01*
X30266592Y21801667D01*
X30197837Y22034500D01*
X30119521Y21791084D01*
X30060277Y21634936D01*
X30004474Y21554837D01*
X29948090Y21552350D01*
X29887104Y21629040D01*
X29817495Y21786471D01*
X29767296Y21928134D01*
X29710605Y22112197D01*
X29678906Y22248603D01*
X29674991Y22324247D01*
X29680874Y22334052D01*
X29760044Y22344066D01*
X29829007Y22270578D01*
X29887212Y22114200D01*
X29890427Y22101893D01*
X29925012Y21986821D01*
X29955399Y21919342D01*
X29969227Y21911248D01*
X29995750Y21962034D01*
X30036467Y22065113D01*
X30060321Y22132744D01*
X30110833Y22248886D01*
X30163480Y22319783D01*
X30187147Y22330834D01*
X30233612Y22293015D01*
X30290645Y22191975D01*
X30334352Y22084000D01*
X30421886Y21837166D01*
X30493454Y22094583D01*
X30539848Y22241314D01*
X30582457Y22321097D01*
X30631334Y22350515D01*
X30649511Y22352000D01*
X30718303Y22342142D01*
G36*
X30718303Y22342142D02*
G01*
X30734000Y22328593D01*
X30722607Y22280361D01*
X30692032Y22170283D01*
X30647683Y22017531D01*
X30620057Y21924545D01*
X30563782Y21744586D01*
X30520730Y21632513D01*
X30483235Y21574162D01*
X30443629Y21555370D01*
X30420731Y21556369D01*
X30360015Y21589873D01*
X30307799Y21680587D01*
X30266592Y21801667D01*
X30197837Y22034500D01*
X30119521Y21791084D01*
X30060277Y21634936D01*
X30004474Y21554837D01*
X29948090Y21552350D01*
X29887104Y21629040D01*
X29817495Y21786471D01*
X29767296Y21928134D01*
X29710605Y22112197D01*
X29678906Y22248603D01*
X29674991Y22324247D01*
X29680874Y22334052D01*
X29760044Y22344066D01*
X29829007Y22270578D01*
X29887212Y22114200D01*
X29890427Y22101893D01*
X29925012Y21986821D01*
X29955399Y21919342D01*
X29969227Y21911248D01*
X29995750Y21962034D01*
X30036467Y22065113D01*
X30060321Y22132744D01*
X30110833Y22248886D01*
X30163480Y22319783D01*
X30187147Y22330834D01*
X30233612Y22293015D01*
X30290645Y22191975D01*
X30334352Y22084000D01*
X30421886Y21837166D01*
X30493454Y22094583D01*
X30539848Y22241314D01*
X30582457Y22321097D01*
X30631334Y22350515D01*
X30649511Y22352000D01*
X30718303Y22342142D01*
G37*
X27371782Y23518152D02*
X27484943Y23465201D01*
X27547137Y23359864D01*
X27570099Y23189536D01*
X27571095Y23128322D01*
X27565093Y22980364D01*
X27541203Y22888136D01*
X27490604Y22823184D01*
X27471380Y22806763D01*
X27341067Y22746311D01*
X27253665Y22749617D01*
X27185994Y22759506D01*
X27150906Y22741636D01*
X27137697Y22677222D01*
X27135667Y22547478D01*
X27135667Y22542500D01*
X27137531Y22410559D01*
X27150260Y22344498D01*
X27184555Y22325532D01*
X27251120Y22334875D01*
X27253665Y22335384D01*
X27391738Y22325403D01*
X27472926Y22276986D01*
X27526098Y22224378D01*
X27557077Y22158415D01*
X27572014Y22055781D01*
X27577063Y21893159D01*
X27577177Y21881911D01*
X27576815Y21720882D01*
X27568466Y21625827D01*
X27546973Y21578101D01*
X27507179Y21559058D01*
X27486912Y21555568D01*
X27437371Y21554733D01*
X27408054Y21581600D01*
X27392179Y21653802D01*
X27382965Y21788974D01*
X27381079Y21830734D01*
X27372567Y21983076D01*
X27358633Y22069438D01*
X27331617Y22108478D01*
X27283859Y22118854D01*
X27262667Y22119167D01*
X27206340Y22114013D01*
X27173420Y22086055D01*
X27156145Y22016552D01*
X27146751Y21886761D01*
X27144316Y21833417D01*
X27134634Y21680053D01*
X27118556Y21593339D01*
X27090211Y21555257D01*
X27051179Y21547667D01*
X27004328Y21560004D01*
X26977231Y21609759D01*
X26962557Y21716051D01*
X26957863Y21791084D01*
X26954338Y21915499D01*
X26952677Y22104545D01*
X26952888Y22338207D01*
X26954976Y22596470D01*
X26957564Y22781561D01*
X26964260Y23185129D01*
X27143519Y23185129D01*
X27151393Y23048701D01*
X27192359Y22946641D01*
X27256435Y22902638D01*
X27262667Y22902334D01*
X27313607Y22931004D01*
X27344882Y22962879D01*
X27374628Y23042869D01*
X27383185Y23161896D01*
X27381815Y23185129D01*
X27365572Y23291700D01*
X27328936Y23337600D01*
X27262667Y23346834D01*
X27191978Y23335423D01*
X27157804Y23285221D01*
X27143519Y23185129D01*
X26964260Y23185129D01*
X26969961Y23528621D01*
X27195920Y23531320D01*
X27371782Y23518152D01*
G36*
X27371782Y23518152D02*
G01*
X27484943Y23465201D01*
X27547137Y23359864D01*
X27570099Y23189536D01*
X27571095Y23128322D01*
X27565093Y22980364D01*
X27541203Y22888136D01*
X27490604Y22823184D01*
X27471380Y22806763D01*
X27341067Y22746311D01*
X27253665Y22749617D01*
X27185994Y22759506D01*
X27150906Y22741636D01*
X27137697Y22677222D01*
X27135667Y22547478D01*
X27135667Y22542500D01*
X27137531Y22410559D01*
X27150260Y22344498D01*
X27184555Y22325532D01*
X27251120Y22334875D01*
X27253665Y22335384D01*
X27391738Y22325403D01*
X27472926Y22276986D01*
X27526098Y22224378D01*
X27557077Y22158415D01*
X27572014Y22055781D01*
X27577063Y21893159D01*
X27577177Y21881911D01*
X27576815Y21720882D01*
X27568466Y21625827D01*
X27546973Y21578101D01*
X27507179Y21559058D01*
X27486912Y21555568D01*
X27437371Y21554733D01*
X27408054Y21581600D01*
X27392179Y21653802D01*
X27382965Y21788974D01*
X27381079Y21830734D01*
X27372567Y21983076D01*
X27358633Y22069438D01*
X27331617Y22108478D01*
X27283859Y22118854D01*
X27262667Y22119167D01*
X27206340Y22114013D01*
X27173420Y22086055D01*
X27156145Y22016552D01*
X27146751Y21886761D01*
X27144316Y21833417D01*
X27134634Y21680053D01*
X27118556Y21593339D01*
X27090211Y21555257D01*
X27051179Y21547667D01*
X27004328Y21560004D01*
X26977231Y21609759D01*
X26962557Y21716051D01*
X26957863Y21791084D01*
X26954338Y21915499D01*
X26952677Y22104545D01*
X26952888Y22338207D01*
X26954976Y22596470D01*
X26957564Y22781561D01*
X26964260Y23185129D01*
X27143519Y23185129D01*
X27151393Y23048701D01*
X27192359Y22946641D01*
X27256435Y22902638D01*
X27262667Y22902334D01*
X27313607Y22931004D01*
X27344882Y22962879D01*
X27374628Y23042869D01*
X27383185Y23161896D01*
X27381815Y23185129D01*
X27365572Y23291700D01*
X27328936Y23337600D01*
X27262667Y23346834D01*
X27191978Y23335423D01*
X27157804Y23285221D01*
X27143519Y23185129D01*
X26964260Y23185129D01*
X26969961Y23528621D01*
X27195920Y23531320D01*
X27371782Y23518152D01*
G37*
X30275560Y29040667D02*
X30302250Y28911282D01*
X30335022Y28746986D01*
X30352154Y28659094D01*
X30397180Y28425687D01*
X30641344Y28331010D01*
X30775353Y28281115D01*
X30877684Y28246812D01*
X30920794Y28236334D01*
X30970198Y28259205D01*
X31068245Y28319614D01*
X31195142Y28405254D01*
X31215458Y28419528D01*
X31348435Y28512644D01*
X31458169Y28588027D01*
X31523037Y28630843D01*
X31526641Y28633007D01*
X31577262Y28619166D01*
X31668224Y28559301D01*
X31781625Y28468845D01*
X31899565Y28363225D01*
X32004144Y28257873D01*
X32077459Y28168218D01*
X32090544Y28146943D01*
X32094635Y28089091D01*
X32055760Y27995359D01*
X31968556Y27854487D01*
X31912641Y27773458D01*
X31697573Y27468198D01*
X31813402Y27195664D01*
X31896438Y27024936D01*
X31970107Y26929170D01*
X32019532Y26902206D01*
X32107548Y26883449D01*
X32246544Y26855506D01*
X32385000Y26828558D01*
X32660167Y26775834D01*
X32660167Y25971500D01*
X32309817Y25903373D01*
X32148708Y25870501D01*
X32023266Y25841994D01*
X31953680Y25822554D01*
X31946212Y25818707D01*
X31925205Y25773901D01*
X31882557Y25671817D01*
X31827296Y25534095D01*
X31824498Y25527000D01*
X31716040Y25251834D01*
X31895047Y24997834D01*
X31986350Y24867236D01*
X32059223Y24761082D01*
X32099021Y24700727D01*
X32100457Y24698310D01*
X32083781Y24650833D01*
X32017315Y24560645D01*
X31913030Y24442946D01*
X31841597Y24369710D01*
X31556334Y24086634D01*
X31285067Y24277651D01*
X31122811Y24386340D01*
X31007448Y24445514D01*
X30920852Y24459886D01*
X30844896Y24434171D01*
X30799992Y24403821D01*
X30725675Y24355707D01*
X30688786Y24341667D01*
X30663662Y24378736D01*
X30612845Y24481217D01*
X30542357Y24636020D01*
X30458221Y24830055D01*
X30397732Y24974237D01*
X30135710Y25606807D01*
X30310596Y25764806D01*
X30471057Y25932210D01*
X30564780Y26092915D01*
X30603912Y26270974D01*
X30607000Y26351758D01*
X30570592Y26611427D01*
X30460931Y26829129D01*
X30368797Y26931891D01*
X30167785Y27069358D01*
X29950537Y27133737D01*
X29730953Y27131064D01*
X29522933Y27067373D01*
X29340377Y26948699D01*
X29197184Y26781075D01*
X29107255Y26570537D01*
X29083000Y26373667D01*
X29114081Y26146578D01*
X29213006Y25946807D01*
X29375674Y25767987D01*
X29554290Y25606807D01*
X29292268Y24974237D01*
X29202395Y24761374D01*
X29122168Y24579046D01*
X29057610Y24440343D01*
X29014743Y24358354D01*
X29001214Y24341667D01*
X28948439Y24364586D01*
X28890008Y24403821D01*
X28791436Y24456748D01*
X28691718Y24453657D01*
X28568110Y24391308D01*
X28507268Y24349331D01*
X28344667Y24230848D01*
X28233064Y24157936D01*
X28151576Y24131426D01*
X28079319Y24152149D01*
X27995411Y24220936D01*
X27878968Y24338619D01*
X27842303Y24375801D01*
X27557967Y24662333D01*
X27748984Y24933600D01*
X27840102Y25071625D01*
X27907595Y25190296D01*
X27939102Y25267483D01*
X27940000Y25275622D01*
X27925382Y25342737D01*
X27888634Y25458515D01*
X27840417Y25593558D01*
X27791391Y25718470D01*
X27752218Y25803854D01*
X27743103Y25818568D01*
X27698831Y25833766D01*
X27591478Y25860061D01*
X27441125Y25892666D01*
X27380321Y25905031D01*
X27029834Y25975092D01*
X27029834Y26775834D01*
X27305000Y26828558D01*
X27462185Y26859214D01*
X27596656Y26886379D01*
X27670468Y26902206D01*
X27740985Y26950113D01*
X27816759Y27067037D01*
X27876739Y27195994D01*
X27992708Y27468858D01*
X27805952Y27736179D01*
X27712470Y27870701D01*
X27636534Y27981276D01*
X27592532Y28046927D01*
X27589388Y28051906D01*
X27603576Y28101751D01*
X27666813Y28189488D01*
X27762966Y28298975D01*
X27875900Y28414072D01*
X27989480Y28518637D01*
X28087574Y28596528D01*
X28154046Y28631606D01*
X28167611Y28630380D01*
X28223713Y28593640D01*
X28327589Y28522383D01*
X28458029Y28431180D01*
X28474543Y28419528D01*
X28604061Y28331162D01*
X28707702Y28266180D01*
X28765671Y28236889D01*
X28769206Y28236334D01*
X28824709Y28250645D01*
X28933438Y28287847D01*
X29048657Y28331010D01*
X29292820Y28425687D01*
X29337846Y28659094D01*
X29369828Y28822000D01*
X29401068Y28976590D01*
X29414441Y29040667D01*
X29446010Y29188834D01*
X30243991Y29188834D01*
X30275560Y29040667D01*
G36*
X30275560Y29040667D02*
G01*
X30302250Y28911282D01*
X30335022Y28746986D01*
X30352154Y28659094D01*
X30397180Y28425687D01*
X30641344Y28331010D01*
X30775353Y28281115D01*
X30877684Y28246812D01*
X30920794Y28236334D01*
X30970198Y28259205D01*
X31068245Y28319614D01*
X31195142Y28405254D01*
X31215458Y28419528D01*
X31348435Y28512644D01*
X31458169Y28588027D01*
X31523037Y28630843D01*
X31526641Y28633007D01*
X31577262Y28619166D01*
X31668224Y28559301D01*
X31781625Y28468845D01*
X31899565Y28363225D01*
X32004144Y28257873D01*
X32077459Y28168218D01*
X32090544Y28146943D01*
X32094635Y28089091D01*
X32055760Y27995359D01*
X31968556Y27854487D01*
X31912641Y27773458D01*
X31697573Y27468198D01*
X31813402Y27195664D01*
X31896438Y27024936D01*
X31970107Y26929170D01*
X32019532Y26902206D01*
X32107548Y26883449D01*
X32246544Y26855506D01*
X32385000Y26828558D01*
X32660167Y26775834D01*
X32660167Y25971500D01*
X32309817Y25903373D01*
X32148708Y25870501D01*
X32023266Y25841994D01*
X31953680Y25822554D01*
X31946212Y25818707D01*
X31925205Y25773901D01*
X31882557Y25671817D01*
X31827296Y25534095D01*
X31824498Y25527000D01*
X31716040Y25251834D01*
X31895047Y24997834D01*
X31986350Y24867236D01*
X32059223Y24761082D01*
X32099021Y24700727D01*
X32100457Y24698310D01*
X32083781Y24650833D01*
X32017315Y24560645D01*
X31913030Y24442946D01*
X31841597Y24369710D01*
X31556334Y24086634D01*
X31285067Y24277651D01*
X31122811Y24386340D01*
X31007448Y24445514D01*
X30920852Y24459886D01*
X30844896Y24434171D01*
X30799992Y24403821D01*
X30725675Y24355707D01*
X30688786Y24341667D01*
X30663662Y24378736D01*
X30612845Y24481217D01*
X30542357Y24636020D01*
X30458221Y24830055D01*
X30397732Y24974237D01*
X30135710Y25606807D01*
X30310596Y25764806D01*
X30471057Y25932210D01*
X30564780Y26092915D01*
X30603912Y26270974D01*
X30607000Y26351758D01*
X30570592Y26611427D01*
X30460931Y26829129D01*
X30368797Y26931891D01*
X30167785Y27069358D01*
X29950537Y27133737D01*
X29730953Y27131064D01*
X29522933Y27067373D01*
X29340377Y26948699D01*
X29197184Y26781075D01*
X29107255Y26570537D01*
X29083000Y26373667D01*
X29114081Y26146578D01*
X29213006Y25946807D01*
X29375674Y25767987D01*
X29554290Y25606807D01*
X29292268Y24974237D01*
X29202395Y24761374D01*
X29122168Y24579046D01*
X29057610Y24440343D01*
X29014743Y24358354D01*
X29001214Y24341667D01*
X28948439Y24364586D01*
X28890008Y24403821D01*
X28791436Y24456748D01*
X28691718Y24453657D01*
X28568110Y24391308D01*
X28507268Y24349331D01*
X28344667Y24230848D01*
X28233064Y24157936D01*
X28151576Y24131426D01*
X28079319Y24152149D01*
X27995411Y24220936D01*
X27878968Y24338619D01*
X27842303Y24375801D01*
X27557967Y24662333D01*
X27748984Y24933600D01*
X27840102Y25071625D01*
X27907595Y25190296D01*
X27939102Y25267483D01*
X27940000Y25275622D01*
X27925382Y25342737D01*
X27888634Y25458515D01*
X27840417Y25593558D01*
X27791391Y25718470D01*
X27752218Y25803854D01*
X27743103Y25818568D01*
X27698831Y25833766D01*
X27591478Y25860061D01*
X27441125Y25892666D01*
X27380321Y25905031D01*
X27029834Y25975092D01*
X27029834Y26775834D01*
X27305000Y26828558D01*
X27462185Y26859214D01*
X27596656Y26886379D01*
X27670468Y26902206D01*
X27740985Y26950113D01*
X27816759Y27067037D01*
X27876739Y27195994D01*
X27992708Y27468858D01*
X27805952Y27736179D01*
X27712470Y27870701D01*
X27636534Y27981276D01*
X27592532Y28046927D01*
X27589388Y28051906D01*
X27603576Y28101751D01*
X27666813Y28189488D01*
X27762966Y28298975D01*
X27875900Y28414072D01*
X27989480Y28518637D01*
X28087574Y28596528D01*
X28154046Y28631606D01*
X28167611Y28630380D01*
X28223713Y28593640D01*
X28327589Y28522383D01*
X28458029Y28431180D01*
X28474543Y28419528D01*
X28604061Y28331162D01*
X28707702Y28266180D01*
X28765671Y28236889D01*
X28769206Y28236334D01*
X28824709Y28250645D01*
X28933438Y28287847D01*
X29048657Y28331010D01*
X29292820Y28425687D01*
X29337846Y28659094D01*
X29369828Y28822000D01*
X29401068Y28976590D01*
X29414441Y29040667D01*
X29446010Y29188834D01*
X30243991Y29188834D01*
X30275560Y29040667D01*
G37*
D11*
%TO.C,CON103*%
X31305500Y20955000D02*
X31305500Y10795000D01*
X31305500Y20955000D02*
X31559500Y20701000D01*
X31305500Y20447000D02*
X31813500Y20955000D01*
X31305500Y10795000D02*
X42354500Y10795000D01*
X33591500Y20701000D02*
X33845500Y20955000D01*
X33845500Y20447000D02*
X33337500Y20955000D01*
X33845500Y10795000D02*
X33845500Y20955000D01*
X42354500Y20955000D02*
X31305500Y20955000D01*
X42354500Y10795000D02*
X42354500Y20955000D01*
%TO.C,logo101*%
D12*
X19531468Y25721825D02*
X19533046Y25690572D01*
X19534477Y25641100D01*
X19535728Y25575589D01*
X19536764Y25496219D01*
X19537551Y25405169D01*
X19538056Y25304620D01*
X19538243Y25196750D01*
X19538244Y25191156D01*
X19538244Y24649289D01*
X19143133Y24649289D01*
X19051225Y24649394D01*
X18966889Y24649692D01*
X18892680Y24650160D01*
X18831152Y24650771D01*
X18784860Y24651502D01*
X18756358Y24652327D01*
X18748022Y24653107D01*
X18756358Y24661157D01*
X18778864Y24679867D01*
X18811782Y24706169D01*
X18839499Y24727833D01*
X18976567Y24846052D01*
X19104994Y24980418D01*
X19222126Y25127231D01*
X19325311Y25282790D01*
X19411895Y25443394D01*
X19479227Y25605341D01*
X19488951Y25633903D01*
X19503975Y25677027D01*
X19517296Y25710629D01*
X19526928Y25729909D01*
X19529777Y25732681D01*
X19531468Y25721825D01*
G36*
X19531468Y25721825D02*
G01*
X19533046Y25690572D01*
X19534477Y25641100D01*
X19535728Y25575589D01*
X19536764Y25496219D01*
X19537551Y25405169D01*
X19538056Y25304620D01*
X19538243Y25196750D01*
X19538244Y25191156D01*
X19538244Y24649289D01*
X19143133Y24649289D01*
X19051225Y24649394D01*
X18966889Y24649692D01*
X18892680Y24650160D01*
X18831152Y24650771D01*
X18784860Y24651502D01*
X18756358Y24652327D01*
X18748022Y24653107D01*
X18756358Y24661157D01*
X18778864Y24679867D01*
X18811782Y24706169D01*
X18839499Y24727833D01*
X18976567Y24846052D01*
X19104994Y24980418D01*
X19222126Y25127231D01*
X19325311Y25282790D01*
X19411895Y25443394D01*
X19479227Y25605341D01*
X19488951Y25633903D01*
X19503975Y25677027D01*
X19517296Y25710629D01*
X19526928Y25729909D01*
X19529777Y25732681D01*
X19531468Y25721825D01*
G37*
X12000088Y28721782D02*
X14373577Y28718933D01*
X14376518Y28225044D01*
X14376987Y28121899D01*
X14377144Y28026055D01*
X14377003Y27939799D01*
X14376583Y27865413D01*
X14375901Y27805184D01*
X14374972Y27761397D01*
X14373814Y27736335D01*
X14372896Y27731156D01*
X14362160Y27738204D01*
X14338814Y27757109D01*
X14306928Y27784510D01*
X14288261Y27801055D01*
X14142723Y27918172D01*
X13981431Y28024245D01*
X13809487Y28116547D01*
X13631990Y28192351D01*
X13454042Y28248929D01*
X13447520Y28250617D01*
X13305907Y28280309D01*
X13153533Y28300408D01*
X12997288Y28310557D01*
X12844060Y28310401D01*
X12700740Y28299584D01*
X12646377Y28291974D01*
X12435674Y28246966D01*
X12234211Y28182197D01*
X12043065Y28098643D01*
X11863314Y27997281D01*
X11696036Y27879090D01*
X11542308Y27745046D01*
X11403209Y27596127D01*
X11279815Y27433309D01*
X11173206Y27257571D01*
X11084458Y27069889D01*
X11014649Y26871241D01*
X10993288Y26792987D01*
X10970093Y26692355D01*
X10953601Y26598519D01*
X10943173Y26504924D01*
X10938170Y26405010D01*
X10937950Y26292222D01*
X10939162Y26238299D01*
X10949257Y26067203D01*
X10970329Y25910776D01*
X11003824Y25763221D01*
X11051188Y25618739D01*
X11113866Y25471532D01*
X11147542Y25402679D01*
X11247997Y25224784D01*
X11361397Y25063272D01*
X11490355Y24914953D01*
X11637484Y24776634D01*
X11707317Y24719177D01*
X11795545Y24649289D01*
X9626600Y24649289D01*
X9626600Y28724631D01*
X12000088Y28721782D01*
G36*
X12000088Y28721782D02*
G01*
X14373577Y28718933D01*
X14376518Y28225044D01*
X14376987Y28121899D01*
X14377144Y28026055D01*
X14377003Y27939799D01*
X14376583Y27865413D01*
X14375901Y27805184D01*
X14374972Y27761397D01*
X14373814Y27736335D01*
X14372896Y27731156D01*
X14362160Y27738204D01*
X14338814Y27757109D01*
X14306928Y27784510D01*
X14288261Y27801055D01*
X14142723Y27918172D01*
X13981431Y28024245D01*
X13809487Y28116547D01*
X13631990Y28192351D01*
X13454042Y28248929D01*
X13447520Y28250617D01*
X13305907Y28280309D01*
X13153533Y28300408D01*
X12997288Y28310557D01*
X12844060Y28310401D01*
X12700740Y28299584D01*
X12646377Y28291974D01*
X12435674Y28246966D01*
X12234211Y28182197D01*
X12043065Y28098643D01*
X11863314Y27997281D01*
X11696036Y27879090D01*
X11542308Y27745046D01*
X11403209Y27596127D01*
X11279815Y27433309D01*
X11173206Y27257571D01*
X11084458Y27069889D01*
X11014649Y26871241D01*
X10993288Y26792987D01*
X10970093Y26692355D01*
X10953601Y26598519D01*
X10943173Y26504924D01*
X10938170Y26405010D01*
X10937950Y26292222D01*
X10939162Y26238299D01*
X10949257Y26067203D01*
X10970329Y25910776D01*
X11003824Y25763221D01*
X11051188Y25618739D01*
X11113866Y25471532D01*
X11147542Y25402679D01*
X11247997Y25224784D01*
X11361397Y25063272D01*
X11490355Y24914953D01*
X11637484Y24776634D01*
X11707317Y24719177D01*
X11795545Y24649289D01*
X9626600Y24649289D01*
X9626600Y28724631D01*
X12000088Y28721782D01*
G37*
X19538244Y27798889D02*
X19538173Y27656506D01*
X19537966Y27520810D01*
X19537634Y27393469D01*
X19537189Y27276153D01*
X19536640Y27170529D01*
X19536000Y27078269D01*
X19535278Y27001039D01*
X19534485Y26940510D01*
X19533632Y26898351D01*
X19532731Y26876230D01*
X19532245Y26873200D01*
X19523603Y26881986D01*
X19521285Y26887311D01*
X19494566Y26962593D01*
X19473146Y27021074D01*
X19455229Y27067390D01*
X19439022Y27106176D01*
X19422731Y27142066D01*
X19422394Y27142782D01*
X19325068Y27325501D01*
X19211097Y27496903D01*
X19082570Y27654234D01*
X18941576Y27794742D01*
X18900422Y27830465D01*
X18730057Y27960401D01*
X18552218Y28069561D01*
X18365844Y28158379D01*
X18169872Y28227291D01*
X17963242Y28276733D01*
X17744891Y28307139D01*
X17736276Y28307931D01*
X17549547Y28314088D01*
X17358158Y28300068D01*
X17165530Y28266776D01*
X16975082Y28215119D01*
X16790235Y28146003D01*
X16614408Y28060332D01*
X16471259Y27972915D01*
X16419619Y27936563D01*
X16363689Y27894866D01*
X16308572Y27851853D01*
X16259373Y27811551D01*
X16221195Y27777988D01*
X16208022Y27765186D01*
X16197306Y27754015D01*
X16188432Y27745751D01*
X16181227Y27742165D01*
X16175517Y27745028D01*
X16171129Y27756110D01*
X16167890Y27777184D01*
X16165626Y27810021D01*
X16164163Y27856391D01*
X16163330Y27918066D01*
X16162951Y27996816D01*
X16162854Y28094414D01*
X16162866Y28212630D01*
X16162866Y28724578D01*
X19538244Y28724578D01*
X19538244Y27798889D01*
G36*
X19538244Y27798889D02*
G01*
X19538173Y27656506D01*
X19537966Y27520810D01*
X19537634Y27393469D01*
X19537189Y27276153D01*
X19536640Y27170529D01*
X19536000Y27078269D01*
X19535278Y27001039D01*
X19534485Y26940510D01*
X19533632Y26898351D01*
X19532731Y26876230D01*
X19532245Y26873200D01*
X19523603Y26881986D01*
X19521285Y26887311D01*
X19494566Y26962593D01*
X19473146Y27021074D01*
X19455229Y27067390D01*
X19439022Y27106176D01*
X19422731Y27142066D01*
X19422394Y27142782D01*
X19325068Y27325501D01*
X19211097Y27496903D01*
X19082570Y27654234D01*
X18941576Y27794742D01*
X18900422Y27830465D01*
X18730057Y27960401D01*
X18552218Y28069561D01*
X18365844Y28158379D01*
X18169872Y28227291D01*
X17963242Y28276733D01*
X17744891Y28307139D01*
X17736276Y28307931D01*
X17549547Y28314088D01*
X17358158Y28300068D01*
X17165530Y28266776D01*
X16975082Y28215119D01*
X16790235Y28146003D01*
X16614408Y28060332D01*
X16471259Y27972915D01*
X16419619Y27936563D01*
X16363689Y27894866D01*
X16308572Y27851853D01*
X16259373Y27811551D01*
X16221195Y27777988D01*
X16208022Y27765186D01*
X16197306Y27754015D01*
X16188432Y27745751D01*
X16181227Y27742165D01*
X16175517Y27745028D01*
X16171129Y27756110D01*
X16167890Y27777184D01*
X16165626Y27810021D01*
X16164163Y27856391D01*
X16163330Y27918066D01*
X16162951Y27996816D01*
X16162854Y28094414D01*
X16162866Y28212630D01*
X16162866Y28724578D01*
X19538244Y28724578D01*
X19538244Y27798889D01*
G37*
X13100636Y27724060D02*
X13267397Y27695870D01*
X13428075Y27648734D01*
X13581242Y27583558D01*
X13725466Y27501250D01*
X13859318Y27402717D01*
X13981367Y27288866D01*
X14090183Y27160603D01*
X14184336Y27018836D01*
X14262396Y26864473D01*
X14322932Y26698420D01*
X14357914Y26557111D01*
X14365903Y26498860D01*
X14370879Y26424514D01*
X14372912Y26340342D01*
X14372071Y26252617D01*
X14368423Y26167608D01*
X14362038Y26091586D01*
X14352986Y26030823D01*
X14352089Y26026533D01*
X14302424Y25848379D01*
X14232188Y25678439D01*
X14142263Y25518795D01*
X14127191Y25495956D01*
X14081000Y25434557D01*
X14021340Y25365884D01*
X13953447Y25295157D01*
X13882554Y25227595D01*
X13813897Y25168418D01*
X13753740Y25123534D01*
X13600018Y25033848D01*
X13437515Y24963610D01*
X13268667Y24913367D01*
X13095911Y24883670D01*
X12921682Y24875068D01*
X12748417Y24888111D01*
X12725400Y24891534D01*
X12601829Y24916104D01*
X12485972Y24950656D01*
X12368492Y24998175D01*
X12319000Y25021460D01*
X12164940Y25108323D01*
X12026117Y25210478D01*
X11902956Y25326241D01*
X11795884Y25453931D01*
X11705326Y25591864D01*
X11631710Y25738359D01*
X11575461Y25891732D01*
X11537006Y26050301D01*
X11516770Y26212383D01*
X11515180Y26376297D01*
X11532663Y26540358D01*
X11569644Y26702886D01*
X11626550Y26862196D01*
X11703806Y27016607D01*
X11782714Y27138489D01*
X11888999Y27267931D01*
X12011659Y27385398D01*
X12147521Y27488708D01*
X12293412Y27575675D01*
X12446156Y27644116D01*
X12578167Y27685878D01*
X12754592Y27719971D01*
X12929225Y27732395D01*
X13100636Y27724060D01*
G36*
X13100636Y27724060D02*
G01*
X13267397Y27695870D01*
X13428075Y27648734D01*
X13581242Y27583558D01*
X13725466Y27501250D01*
X13859318Y27402717D01*
X13981367Y27288866D01*
X14090183Y27160603D01*
X14184336Y27018836D01*
X14262396Y26864473D01*
X14322932Y26698420D01*
X14357914Y26557111D01*
X14365903Y26498860D01*
X14370879Y26424514D01*
X14372912Y26340342D01*
X14372071Y26252617D01*
X14368423Y26167608D01*
X14362038Y26091586D01*
X14352986Y26030823D01*
X14352089Y26026533D01*
X14302424Y25848379D01*
X14232188Y25678439D01*
X14142263Y25518795D01*
X14127191Y25495956D01*
X14081000Y25434557D01*
X14021340Y25365884D01*
X13953447Y25295157D01*
X13882554Y25227595D01*
X13813897Y25168418D01*
X13753740Y25123534D01*
X13600018Y25033848D01*
X13437515Y24963610D01*
X13268667Y24913367D01*
X13095911Y24883670D01*
X12921682Y24875068D01*
X12748417Y24888111D01*
X12725400Y24891534D01*
X12601829Y24916104D01*
X12485972Y24950656D01*
X12368492Y24998175D01*
X12319000Y25021460D01*
X12164940Y25108323D01*
X12026117Y25210478D01*
X11902956Y25326241D01*
X11795884Y25453931D01*
X11705326Y25591864D01*
X11631710Y25738359D01*
X11575461Y25891732D01*
X11537006Y26050301D01*
X11516770Y26212383D01*
X11515180Y26376297D01*
X11532663Y26540358D01*
X11569644Y26702886D01*
X11626550Y26862196D01*
X11703806Y27016607D01*
X11782714Y27138489D01*
X11888999Y27267931D01*
X12011659Y27385398D01*
X12147521Y27488708D01*
X12293412Y27575675D01*
X12446156Y27644116D01*
X12578167Y27685878D01*
X12754592Y27719971D01*
X12929225Y27732395D01*
X13100636Y27724060D01*
G37*
X17670783Y27724262D02*
X17733021Y27722897D01*
X17782560Y27720198D01*
X17824339Y27715757D01*
X17863293Y27709162D01*
X17904359Y27700005D01*
X17912644Y27697982D01*
X18021910Y27667810D01*
X18119338Y27633159D01*
X18215663Y27589972D01*
X18264907Y27564889D01*
X18414917Y27473505D01*
X18551128Y27365158D01*
X18672390Y27241586D01*
X18777556Y27104524D01*
X18865476Y26955712D01*
X18935003Y26796885D01*
X18984987Y26629781D01*
X19014280Y26456138D01*
X19017019Y26427289D01*
X19021160Y26249183D01*
X19003798Y26074534D01*
X18965757Y25905064D01*
X18907862Y25742493D01*
X18830936Y25588544D01*
X18735804Y25444939D01*
X18623290Y25313399D01*
X18494217Y25195645D01*
X18391390Y25120295D01*
X18249765Y25035557D01*
X18106712Y24970014D01*
X17955666Y24920872D01*
X17878777Y24902373D01*
X17838863Y24895986D01*
X17783646Y24890170D01*
X17718582Y24885185D01*
X17649132Y24881289D01*
X17580753Y24878744D01*
X17518903Y24877807D01*
X17469041Y24878738D01*
X17438511Y24881456D01*
X17413107Y24885644D01*
X17374019Y24891974D01*
X17331266Y24898827D01*
X17188106Y24931747D01*
X17043152Y24984070D01*
X16900844Y25053501D01*
X16765624Y25137745D01*
X16641931Y25234504D01*
X16591265Y25281467D01*
X16470872Y25414387D01*
X16369747Y25558592D01*
X16287471Y25714821D01*
X16223630Y25883811D01*
X16196491Y25981378D01*
X16183053Y26052416D01*
X16172970Y26138721D01*
X16166555Y26233190D01*
X16164125Y26328717D01*
X16165992Y26418197D01*
X16172473Y26494526D01*
X16173451Y26501611D01*
X16210075Y26679565D01*
X16266975Y26847929D01*
X16343837Y27006060D01*
X16440345Y27153315D01*
X16556187Y27289051D01*
X16560632Y27293631D01*
X16689742Y27412741D01*
X16826303Y27511993D01*
X16973105Y27592992D01*
X17132935Y27657343D01*
X17255328Y27693672D01*
X17300040Y27704821D01*
X17338442Y27712960D01*
X17375529Y27718551D01*
X17416298Y27722056D01*
X17465747Y27723936D01*
X17528871Y27724655D01*
X17590911Y27724705D01*
X17670783Y27724262D01*
G36*
X17670783Y27724262D02*
G01*
X17733021Y27722897D01*
X17782560Y27720198D01*
X17824339Y27715757D01*
X17863293Y27709162D01*
X17904359Y27700005D01*
X17912644Y27697982D01*
X18021910Y27667810D01*
X18119338Y27633159D01*
X18215663Y27589972D01*
X18264907Y27564889D01*
X18414917Y27473505D01*
X18551128Y27365158D01*
X18672390Y27241586D01*
X18777556Y27104524D01*
X18865476Y26955712D01*
X18935003Y26796885D01*
X18984987Y26629781D01*
X19014280Y26456138D01*
X19017019Y26427289D01*
X19021160Y26249183D01*
X19003798Y26074534D01*
X18965757Y25905064D01*
X18907862Y25742493D01*
X18830936Y25588544D01*
X18735804Y25444939D01*
X18623290Y25313399D01*
X18494217Y25195645D01*
X18391390Y25120295D01*
X18249765Y25035557D01*
X18106712Y24970014D01*
X17955666Y24920872D01*
X17878777Y24902373D01*
X17838863Y24895986D01*
X17783646Y24890170D01*
X17718582Y24885185D01*
X17649132Y24881289D01*
X17580753Y24878744D01*
X17518903Y24877807D01*
X17469041Y24878738D01*
X17438511Y24881456D01*
X17413107Y24885644D01*
X17374019Y24891974D01*
X17331266Y24898827D01*
X17188106Y24931747D01*
X17043152Y24984070D01*
X16900844Y25053501D01*
X16765624Y25137745D01*
X16641931Y25234504D01*
X16591265Y25281467D01*
X16470872Y25414387D01*
X16369747Y25558592D01*
X16287471Y25714821D01*
X16223630Y25883811D01*
X16196491Y25981378D01*
X16183053Y26052416D01*
X16172970Y26138721D01*
X16166555Y26233190D01*
X16164125Y26328717D01*
X16165992Y26418197D01*
X16172473Y26494526D01*
X16173451Y26501611D01*
X16210075Y26679565D01*
X16266975Y26847929D01*
X16343837Y27006060D01*
X16440345Y27153315D01*
X16556187Y27289051D01*
X16560632Y27293631D01*
X16689742Y27412741D01*
X16826303Y27511993D01*
X16973105Y27592992D01*
X17132935Y27657343D01*
X17255328Y27693672D01*
X17300040Y27704821D01*
X17338442Y27712960D01*
X17375529Y27718551D01*
X17416298Y27722056D01*
X17465747Y27723936D01*
X17528871Y27724655D01*
X17590911Y27724705D01*
X17670783Y27724262D01*
G37*
X15575844Y27478533D02*
X15575877Y27272935D01*
X15576004Y27088517D01*
X15576266Y26923882D01*
X15576704Y26777634D01*
X15577359Y26648376D01*
X15578271Y26534711D01*
X15579483Y26435240D01*
X15581035Y26348569D01*
X15582968Y26273298D01*
X15585324Y26208032D01*
X15588142Y26151374D01*
X15591466Y26101925D01*
X15595334Y26058290D01*
X15599789Y26019071D01*
X15604872Y25982871D01*
X15610623Y25948294D01*
X15617084Y25913941D01*
X15622633Y25886446D01*
X15664470Y25725052D01*
X15723078Y25560759D01*
X15795831Y25399112D01*
X15880103Y25245658D01*
X15973267Y25105941D01*
X16021806Y25043642D01*
X16068408Y24990405D01*
X16126228Y24929332D01*
X16189417Y24866212D01*
X16252128Y24806828D01*
X16308513Y24756969D01*
X16326555Y24742129D01*
X16364001Y24711987D01*
X16396070Y24685865D01*
X16417629Y24667959D01*
X16422107Y24664082D01*
X16421611Y24661653D01*
X16413622Y24659493D01*
X16397003Y24657588D01*
X16370616Y24655924D01*
X16333324Y24654485D01*
X16283987Y24653257D01*
X16221469Y24652226D01*
X16144632Y24651378D01*
X16052337Y24650696D01*
X15943448Y24650168D01*
X15816826Y24649778D01*
X15671334Y24649511D01*
X15505833Y24649354D01*
X15319186Y24649292D01*
X15267441Y24649289D01*
X14096244Y24649289D01*
X14208571Y24739641D01*
X14365387Y24880131D01*
X14506320Y25036039D01*
X14630262Y25205711D01*
X14736104Y25387495D01*
X14822739Y25579735D01*
X14876364Y25736203D01*
X14886860Y25771150D01*
X14896274Y25802510D01*
X14904670Y25831632D01*
X14912113Y25859864D01*
X14918668Y25888556D01*
X14924397Y25919057D01*
X14929365Y25952716D01*
X14933636Y25990881D01*
X14937274Y26034902D01*
X14940344Y26086128D01*
X14942909Y26145908D01*
X14945034Y26215590D01*
X14946782Y26296524D01*
X14948218Y26390059D01*
X14949406Y26497543D01*
X14950410Y26620326D01*
X14951293Y26759756D01*
X14952121Y26917183D01*
X14952957Y27093956D01*
X14953865Y27291423D01*
X14954259Y27375556D01*
X14960600Y28718933D01*
X15575844Y28724941D01*
X15575844Y27478533D01*
G36*
X15575844Y27478533D02*
G01*
X15575877Y27272935D01*
X15576004Y27088517D01*
X15576266Y26923882D01*
X15576704Y26777634D01*
X15577359Y26648376D01*
X15578271Y26534711D01*
X15579483Y26435240D01*
X15581035Y26348569D01*
X15582968Y26273298D01*
X15585324Y26208032D01*
X15588142Y26151374D01*
X15591466Y26101925D01*
X15595334Y26058290D01*
X15599789Y26019071D01*
X15604872Y25982871D01*
X15610623Y25948294D01*
X15617084Y25913941D01*
X15622633Y25886446D01*
X15664470Y25725052D01*
X15723078Y25560759D01*
X15795831Y25399112D01*
X15880103Y25245658D01*
X15973267Y25105941D01*
X16021806Y25043642D01*
X16068408Y24990405D01*
X16126228Y24929332D01*
X16189417Y24866212D01*
X16252128Y24806828D01*
X16308513Y24756969D01*
X16326555Y24742129D01*
X16364001Y24711987D01*
X16396070Y24685865D01*
X16417629Y24667959D01*
X16422107Y24664082D01*
X16421611Y24661653D01*
X16413622Y24659493D01*
X16397003Y24657588D01*
X16370616Y24655924D01*
X16333324Y24654485D01*
X16283987Y24653257D01*
X16221469Y24652226D01*
X16144632Y24651378D01*
X16052337Y24650696D01*
X15943448Y24650168D01*
X15816826Y24649778D01*
X15671334Y24649511D01*
X15505833Y24649354D01*
X15319186Y24649292D01*
X15267441Y24649289D01*
X14096244Y24649289D01*
X14208571Y24739641D01*
X14365387Y24880131D01*
X14506320Y25036039D01*
X14630262Y25205711D01*
X14736104Y25387495D01*
X14822739Y25579735D01*
X14876364Y25736203D01*
X14886860Y25771150D01*
X14896274Y25802510D01*
X14904670Y25831632D01*
X14912113Y25859864D01*
X14918668Y25888556D01*
X14924397Y25919057D01*
X14929365Y25952716D01*
X14933636Y25990881D01*
X14937274Y26034902D01*
X14940344Y26086128D01*
X14942909Y26145908D01*
X14945034Y26215590D01*
X14946782Y26296524D01*
X14948218Y26390059D01*
X14949406Y26497543D01*
X14950410Y26620326D01*
X14951293Y26759756D01*
X14952121Y26917183D01*
X14952957Y27093956D01*
X14953865Y27291423D01*
X14954259Y27375556D01*
X14960600Y28718933D01*
X15575844Y28724941D01*
X15575844Y27478533D01*
G37*
D11*
%TO.C,C102*%
X17437100Y19011900D02*
X17437100Y17868900D01*
%TO.C,C101*%
X17335500Y12636500D02*
X17335500Y11493500D01*
%TD*%
M02*
